<?xml version="1.0" encoding="utf-8"?>
<!-- Generator: Adobe Illustrator 16.0.3, SVG Export Plug-In . SVG Version: 6.00 Build 0)  -->
<!DOCTYPE svg PUBLIC "-//W3C//DTD SVG 1.1//EN" "http://www.w3.org/Graphics/SVG/1.1/DTD/svg11.dtd">
<svg version="1.1" id="Capa_1" xmlns="http://www.w3.org/2000/svg" xmlns:xlink="http://www.w3.org/1999/xlink" x="0px" y="0px"
	 width="228px" height="228px" viewBox="0 0 228 228" enable-background="new 0 0 228 228" xml:space="preserve">
<g>
	<path fill="#12214F" d="M91.679,175.309c10.165,2.736,17.394,6.281,21.906,8.975c4.571-2.82,11.929-6.475,22.292-9.023
		c6.378-1.568,14.225-7.311,20.574-14.635H71.117C77.955,168.447,86.017,173.781,91.679,175.309z"/>
	<g>
		<g>
			<path fill="#DBA527" d="M82.152,117.407c-0.533-2.455-1.217-8.476,4.185-10.704c0,0,2.843,9.232-3.743,11.703
				c-6.263,3.203-11.171-5.116-11.171-5.116C76.707,110.798,80.697,115.36,82.152,117.407z"/>
			<path fill="#DBA527" d="M77.957,110.573c-0.097-2.415,0.257-8.236,5.747-9.447c0,0,1.158,9.222-5.496,10.467
				c-6.468,1.994-9.733-6.708-9.733-6.708C73.896,103.403,76.918,108.391,77.957,110.573z"/>
			<path fill="#DBA527" d="M75.881,103.294c0.069-2.293,0.79-7.783,6.07-8.566c0,0,0.485,8.812-5.898,9.55
				c-6.259,1.459-8.776-7-8.776-7C72.511,96.234,75.043,101.159,75.881,103.294z"/>
			<path fill="#DBA527" d="M74.995,95.371c0.471-1.905,2.062-6.365,6.616-6.068c0,0-1.18,7.453-6.649,6.921
				c-5.494,0.094-6.076-7.429-6.076-7.429C73.449,88.862,74.679,93.434,74.995,95.371z"/>
			<path fill="#DBA527" d="M75.339,88.898c0.632-1.638,2.549-5.418,6.56-4.641c0,0-1.891,6.484-6.688,5.394
				c-4.889-0.538-4.554-7.283-4.554-7.283C74.702,82.944,75.277,87.143,75.339,88.898z"/>
			<path fill="#DBA527" d="M76.569,83.236c0.714-1.25,2.73-4.074,5.882-2.953c0,0-2.327,5.019-6.076,3.547
				c-3.893-1.037-2.794-6.457-2.794-6.457C76.784,78.336,76.734,81.807,76.569,83.236z"/>
			<path fill="#DBA527" d="M78.117,78.515c0.803-1.088,2.997-3.506,5.818-2.112c0,0-2.724,4.432-6.065,2.646
				c-3.522-1.395-1.901-6.337-1.901-6.337C78.856,73.963,78.429,77.198,78.117,78.515z"/>
			<path fill="#DBA527" d="M80.183,74.327c0.861-0.936,3.157-2.975,5.654-1.386c0,0-2.997,3.869-5.939,1.86
				c-3.154-1.661-1.136-6.12-1.136-6.12C81.334,70.144,80.607,73.127,80.183,74.327z"/>
			<path fill="#DBA527" d="M82.421,70.781c0.772-0.626,2.775-1.942,4.524-0.433c0,0-2.751,2.65-4.798,0.766
				C79.9,69.476,81.96,66.26,81.96,66.26C83.783,67.68,82.884,69.903,82.421,70.781z"/>
			<path fill="#DBA527" d="M83.808,68.902c0,0,3.549,0.601,5.923-5.136C89.731,63.766,85.092,63.199,83.808,68.902z"/>
		</g>
		<g>
			<path fill="#DBA527" d="M145.259,117.407c0.532-2.455,1.215-8.476-4.185-10.704c0,0-2.844,9.232,3.743,11.703
				c6.261,3.203,11.17-5.116,11.17-5.116C150.704,110.798,146.712,115.36,145.259,117.407z"/>
			<path fill="#DBA527" d="M149.454,110.573c0.099-2.415-0.259-8.236-5.747-9.447c0,0-1.158,9.222,5.495,10.467
				c6.471,1.994,9.735-6.708,9.735-6.708C153.515,103.403,150.494,108.391,149.454,110.573z"/>
			<path fill="#DBA527" d="M151.528,103.294c-0.068-2.293-0.789-7.783-6.068-8.566c0,0-0.487,8.812,5.897,9.55
				c6.26,1.459,8.777-7,8.777-7C154.899,96.234,152.367,101.159,151.528,103.294z"/>
			<path fill="#DBA527" d="M152.413,95.371c-0.469-1.905-2.06-6.365-6.613-6.068c0,0,1.179,7.453,6.648,6.921
				c5.493,0.094,6.077-7.429,6.077-7.429C153.961,88.862,152.732,93.434,152.413,95.371z"/>
			<path fill="#DBA527" d="M152.072,88.898c-0.633-1.638-2.55-5.418-6.561-4.641c0,0,1.892,6.484,6.688,5.394
				c4.889-0.538,4.554-7.283,4.554-7.283C152.709,82.944,152.134,87.143,152.072,88.898z"/>
			<path fill="#DBA527" d="M150.841,83.236c-0.714-1.25-2.729-4.074-5.881-2.953c0,0,2.326,5.019,6.077,3.547
				c3.892-1.037,2.792-6.457,2.792-6.457C150.627,78.336,150.676,81.807,150.841,83.236z"/>
			<path fill="#DBA527" d="M149.294,78.515c-0.804-1.088-2.996-3.506-5.818-2.112c0,0,2.724,4.432,6.066,2.646
				c3.521-1.395,1.899-6.337,1.899-6.337C148.555,73.963,148.981,77.198,149.294,78.515z"/>
			<path fill="#DBA527" d="M147.229,74.327c-0.863-0.936-3.157-2.975-5.656-1.386c0,0,2.996,3.869,5.94,1.86
				c3.153-1.661,1.136-6.12,1.136-6.12C146.077,70.144,146.804,73.127,147.229,74.327z"/>
			<path fill="#DBA527" d="M144.989,70.781c-0.772-0.626-2.775-1.942-4.525-0.433c0,0,2.752,2.65,4.799,0.766
				c2.248-1.639,0.188-4.855,0.188-4.855C143.627,67.68,144.525,69.903,144.989,70.781z"/>
			<path fill="#DBA527" d="M143.603,68.902c0,0-3.551,0.601-5.922-5.136C137.681,63.766,142.318,63.199,143.603,68.902z"/>
		</g>
	</g>
	<path fill="#12214F" d="M113.705,119.1c15.923,0,28.88-12.954,28.88-28.877c0-15.923-12.957-28.878-28.88-28.878
		S84.827,74.299,84.827,90.222C84.827,106.146,97.781,119.1,113.705,119.1z M140.717,90.222c0,5.83-1.862,11.229-5.015,15.649
		h-6.828c-1.574,0-3.058-0.748-3.997-2.014l-2.677-3.617c-0.957-1.292-1.229-2.966-0.732-4.496l1.822-5.611
		c0.471-1.447,1.576-2.598,3.003-3.127l4.176-1.546c1.56-0.577,3.304-0.337,4.648,0.64l5.598,4.066
		C140.715,90.186,140.717,90.204,140.717,90.222z M114.638,72.565c0-1.591,0.762-3.087,2.051-4.022l5.467-3.971
		c5.365,1.771,9.992,5.179,13.285,9.633l-1.999,6.15c-0.472,1.447-1.577,2.598-3.004,3.126l-4.454,1.651
		c-1.559,0.577-3.302,0.336-4.648-0.641l-4.646-3.376c-1.289-0.935-2.051-2.431-2.051-4.023V72.565z M116.669,99.292
		c1.577,0,3.059,0.747,3.996,2.013l2.657,3.586c0.955,1.292,1.228,2.967,0.732,4.495l-2.134,6.565
		c-2.592,0.83-5.353,1.283-8.216,1.283c-2.837,0-5.572-0.443-8.145-1.258l-2.127-6.547c-0.493-1.516-0.229-3.175,0.709-4.463
		l2.642-3.629c0.935-1.285,2.43-2.045,4.021-2.045H116.669z M105.256,64.571l5.466,3.971c1.287,0.935,2.05,2.431,2.05,4.022v4.526
		c0,1.593-0.764,3.088-2.05,4.023l-4.718,3.428c-1.335,0.97-3.065,1.215-4.616,0.653l-4.213-1.527
		c-1.443-0.521-2.562-1.68-3.036-3.138l-2.09-6.433C95.335,69.695,99.934,66.329,105.256,64.571z M86.697,90.366l5.68-4.126
		c1.334-0.971,3.065-1.215,4.616-0.653l4.118,1.493c1.442,0.522,2.562,1.68,3.036,3.138l1.816,5.587
		c0.492,1.516,0.228,3.175-0.71,4.463l-2.553,3.507c-0.937,1.286-2.431,2.047-4.021,2.047h-7.005
		C88.568,101.449,86.728,96.12,86.697,90.366z"/>
	<g>
		<g>
			<polygon fill="#DBA527" points="113.656,18.957 116.55,24.819 123.019,25.758 118.337,30.322 119.443,36.764 113.656,33.722 
				107.87,36.764 108.975,30.322 104.294,25.758 110.763,24.819 			"/>
			<polygon fill="#DBA527" points="97.944,27.289 99.742,30.931 103.762,31.516 100.853,34.351 101.54,38.354 97.944,36.464 
				94.349,38.354 95.036,34.351 92.127,31.516 96.146,30.931 			"/>
			<polygon fill="#DBA527" points="85.525,32.775 86.839,35.438 89.777,35.865 87.652,37.937 88.153,40.863 85.525,39.481 
				82.897,40.863 83.399,37.937 81.273,35.865 84.212,35.438 			"/>
		</g>
		<g>
			<polygon fill="#DBA527" points="129.466,27.289 127.669,30.931 123.648,31.516 126.555,34.351 125.87,38.354 129.466,36.464 
				133.062,38.354 132.375,34.351 135.283,31.516 131.265,30.931 			"/>
			<polygon fill="#DBA527" points="141.885,32.775 140.57,35.438 137.632,35.865 139.759,37.937 139.257,40.863 141.885,39.481 
				144.513,40.863 144.011,37.937 146.137,35.865 143.198,35.438 			"/>
		</g>
	</g>
	<rect x="28.676" y="125.178" fill="#DBA527" width="169.961" height="32.221"/>
	<g>
		<path fill="#12214F" d="M164.131,160.287c-7.542,10.18-18.119,18.432-26.873,20.586c-12.592,3.098-20.286,7.881-23.613,10.324
			c-3.329-2.34-10.969-6.941-23.469-10.309c-7.691-2.072-18.563-9.578-26.762-20.602h-7.041
			c8.344,12.678,21.171,23.184,32.299,26.184c15.651,4.215,23.043,10.5,23.109,10.557l1.951,1.699l1.911-1.746
			c0.07-0.061,7.441-6.668,22.996-10.496c11.116-2.732,24.128-13.305,32.532-26.197H164.131z"/>
		<path fill="#12214F" d="M54.94,103.591c-2.369,4.764-5.053,10.163-6.778,16.463c-0.205,0.748-0.379,1.49-0.538,2.232h5.933
			c0.001-0.004,0.001-0.007,0.002-0.009h29.689l-16.881-3.272c-5.793-1.121-8.93-7.456-6.303-12.739
			c0.018-0.035,0.034-0.068,0.05-0.103c6.34-12.751,12.34-24.816-5.377-44.803l13.033-16.51c28.546,15.63,63.287,15.63,91.834,0
			l13.032,16.508c-17.715,19.926-12.056,31.323-5.529,44.459c0.077,0.153,0.152,0.304,0.228,0.458
			c2.623,5.284-0.511,11.617-6.304,12.739l-16.851,3.265h29.638c0,0.003,0.003,0.005,0.003,0.007h5.939
			c-0.163-0.745-0.343-1.492-0.553-2.244c-1.81-6.499-4.525-11.968-6.923-16.793c-6.471-13.027-10.746-21.633,6.248-39.778
			l1.699-1.815l-19.181-24.299l-2.168,1.263c-27.878,16.235-62.516,16.235-90.393,0l-2.168-1.263L47.14,61.656l1.7,1.815
			C65.854,81.637,61.275,90.846,54.94,103.591z"/>
	</g>
	<polygon fill="#DBA527" points="227.306,111.566 182.144,111.313 200.599,122.294 200.599,144.473 227.208,144.473 
		213.447,127.496 	"/>
	<polygon fill="#DBA527" points="0,111.292 45.164,111.04 26.707,122.02 26.707,144.201 0.098,144.201 13.858,127.223 	"/>
	<g>
		<path fill="#12214F" d="M32.862,131.943h14.392v4.047h-8.545v3.289h7.298v3.803h-7.298v7.697h-5.846V131.943z"/>
		<path fill="#12214F" d="M50.971,141.373c0-3.076,0.855-5.469,2.57-7.184c1.714-1.711,4.099-2.568,7.157-2.568
			c3.135,0,5.551,0.842,7.247,2.525s2.544,4.039,2.544,7.072c0,2.203-0.371,4.008-1.111,5.416c-0.741,1.41-1.812,2.506-3.212,3.291
			c-1.401,0.781-3.146,1.174-5.236,1.174c-2.125,0-3.882-0.338-5.275-1.014c-1.391-0.678-2.52-1.748-3.386-3.213
			C51.404,145.408,50.971,143.574,50.971,141.373z M56.792,141.398c0,1.902,0.352,3.27,1.061,4.1
			c0.706,0.83,1.668,1.246,2.885,1.246c1.25,0,2.218-0.406,2.903-1.221c0.686-0.814,1.028-2.275,1.028-4.383
			c0-1.771-0.357-3.068-1.072-3.887c-0.715-0.816-1.686-1.225-2.91-1.225c-1.175,0-2.116,0.414-2.827,1.244
			C57.147,138.105,56.792,139.48,56.792,141.398z"/>
		<path fill="#12214F" d="M74.208,141.373c0-3.076,0.856-5.469,2.569-7.184c1.713-1.711,4.099-2.568,7.157-2.568
			c3.136,0,5.551,0.842,7.247,2.525c1.697,1.684,2.544,4.039,2.544,7.072c0,2.203-0.371,4.008-1.111,5.416
			c-0.741,1.41-1.812,2.506-3.212,3.291c-1.4,0.781-3.146,1.174-5.236,1.174c-2.125,0-3.883-0.338-5.275-1.014
			c-1.392-0.678-2.521-1.748-3.385-3.213C74.64,145.408,74.208,143.574,74.208,141.373z M80.027,141.398
			c0,1.902,0.354,3.27,1.061,4.1c0.708,0.83,1.669,1.246,2.885,1.246c1.251,0,2.219-0.406,2.904-1.221s1.028-2.275,1.028-4.383
			c0-1.771-0.358-3.068-1.073-3.887c-0.715-0.816-1.686-1.225-2.91-1.225c-1.174,0-2.117,0.414-2.828,1.244
			C80.383,138.105,80.027,139.48,80.027,141.398z"/>
		<path fill="#12214F" d="M96.171,131.943h17.693v4.65h-5.936v14.186h-5.821v-14.186h-5.936V131.943z"/>
		<path fill="#12214F" d="M117.827,131.943h10.897c1.815,0,3.208,0.447,4.182,1.35c0.972,0.896,1.459,2.012,1.459,3.338
			c0,1.115-0.348,2.07-1.041,2.867c-0.463,0.531-1.139,0.951-2.03,1.258c1.354,0.326,2.35,0.885,2.988,1.678
			c0.638,0.793,0.956,1.787,0.956,2.986c0,0.977-0.227,1.855-0.682,2.635c-0.453,0.779-1.074,1.396-1.863,1.85
			c-0.487,0.283-1.225,0.488-2.209,0.617c-1.311,0.172-2.181,0.258-2.609,0.258h-10.048V131.943z M123.698,139.33h2.532
			c0.908,0,1.54-0.154,1.896-0.469c0.355-0.313,0.533-0.764,0.533-1.355c0-0.549-0.178-0.977-0.533-1.285
			c-0.355-0.307-0.975-0.463-1.857-0.463h-2.57V139.33z M123.698,146.73h2.97c1.003,0,1.709-0.176,2.121-0.533
			c0.409-0.354,0.616-0.832,0.616-1.432c0-0.559-0.204-1.004-0.609-1.342c-0.408-0.34-1.121-0.51-2.143-0.51h-2.955V146.73z"/>
		<path fill="#12214F" d="M150.73,147.67h-6.609l-0.916,3.109h-5.943l7.078-18.836h6.349l7.079,18.836h-6.096L150.73,147.67z
			 M149.522,143.596l-2.079-6.771l-2.056,6.771H149.522z"/>
		<path fill="#12214F" d="M160.935,131.943h5.82v14.197h9.083v4.639h-14.903V131.943z"/>
		<path fill="#12214F" d="M179.801,131.943h5.82v14.197h9.085v4.639h-14.905V131.943z"/>
	</g>
	<g>
		<path fill="#FFFFFF" d="M95.461,165.596h7.485v1.969h-2.511v6h-2.462v-6h-2.512V165.596z"/>
		<path fill="#FFFFFF" d="M104.613,165.596h6.598v1.701h-4.13v1.268h3.833v1.625h-3.833v1.57h4.25v1.805h-6.717V165.596z"/>
		<path fill="#FFFFFF" d="M118.111,172.25h-2.794l-0.389,1.314h-2.515l2.995-7.969h2.687l2.994,7.969h-2.578L118.111,172.25z
			 M117.601,170.525l-0.879-2.863l-0.869,2.863H117.601z"/>
		<path fill="#FFFFFF" d="M122.402,165.596h3.237l1.249,4.848l1.24-4.848h3.238v7.969h-2.018v-6.078l-1.554,6.078h-1.827
			l-1.55-6.078v6.078h-2.017V165.596z"/>
	</g>
	<polygon fill="#12214F" points="196.87,122.287 182.144,114.034 182.144,122.287 	"/>
	<polygon fill="#12214F" points="45.164,122.287 45.164,113.761 29.949,122.287 	"/>
</g>
</svg>
