<?xml version="1.0" encoding="utf-8"?>
<!-- Generator: Adobe Illustrator 16.0.3, SVG Export Plug-In . SVG Version: 6.00 Build 0)  -->
<!DOCTYPE svg PUBLIC "-//W3C//DTD SVG 1.1//EN" "http://www.w3.org/Graphics/SVG/1.1/DTD/svg11.dtd">
<svg version="1.1" id="Capa_1" xmlns="http://www.w3.org/2000/svg" xmlns:xlink="http://www.w3.org/1999/xlink" x="0px" y="0px"
	 width="228px" height="228px" viewBox="0 0 228 228" enable-background="new 0 0 228 228" xml:space="preserve">
<g>
	<g>
		<g>
			<polygon fill="#12214F" points="114.579,0.518 118.379,8.217 126.874,9.452 120.727,15.443 122.178,23.906 114.579,19.91 
				106.98,23.906 108.431,15.443 102.284,9.452 110.779,8.217 			"/>
			<polygon fill="#12214F" points="93.944,11.461 96.305,16.245 101.584,17.012 97.764,20.736 98.666,25.994 93.944,23.511 
				89.222,25.994 90.125,20.736 86.304,17.012 91.583,16.245 			"/>
			<polygon fill="#12214F" points="77.634,18.666 79.359,22.163 83.218,22.724 80.426,25.446 81.085,29.289 77.634,27.474 
				74.183,29.289 74.842,25.446 72.049,22.724 75.907,22.163 			"/>
		</g>
		<g>
			<polygon fill="#12214F" points="135.343,11.461 132.981,16.245 127.702,17.012 131.521,20.736 130.621,25.994 135.343,23.511 
				140.064,25.994 139.163,20.736 142.983,17.012 137.704,16.245 			"/>
			<polygon fill="#12214F" points="151.653,18.666 149.927,22.163 146.068,22.724 148.861,25.446 148.202,29.289 151.653,27.474 
				155.104,29.289 154.445,25.446 157.237,22.724 153.38,22.163 			"/>
		</g>
	</g>
	<path fill="#12214F" d="M165.434,52.369h-8.277c-0.158,0.93-0.346,1.953-0.572,3.072h7.077l49.016,84.9l-25.305,43.83
		c-14.672,25.415-41.789,41.069-71.136,41.069h-3.186c-29.346,0-56.463-15.654-71.135-41.069l-25.306-43.83l49.017-84.9h7.077
		c-0.226-1.119-0.413-2.142-0.573-3.072h-8.277l-50.79,87.972l27.079,46.902c14.673,25.412,41.79,41.069,71.135,41.069h6.733
		c29.347,0,56.464-15.657,71.137-41.071l27.076-46.9L165.434,52.369z"/>
	<g>
		<path fill="#DBA527" d="M153.245,46.355c-0.944-1.103-2.318-1.736-3.773-1.736h-13.425c-0.006-0.617-0.015-1.161-0.023-1.621
			c-0.021-0.981-0.822-1.762-1.803-1.762h-2.183c-0.027-1.056-0.888-1.906-1.951-1.906h-1.778c0.001-0.018,0.005-0.035,0.005-0.053
			c0-1.082-0.875-1.957-1.956-1.957h-6.904c0.016-0.096,0.029-0.192,0.029-0.292c0-1.037-0.841-1.877-1.877-1.877h-0.222
			c1.632-0.948,2.733-2.71,2.733-4.733c0-3.022-2.451-5.474-5.474-5.474c-3.023,0-5.474,2.451-5.474,5.474
			c0,2.023,1.101,3.786,2.733,4.733h-0.221c-1.036,0-1.877,0.84-1.877,1.877c0,0.1,0.015,0.196,0.03,0.292h-6.905
			c-1.08,0-1.956,0.875-1.956,1.957c0,0.018,0.004,0.035,0.005,0.053h-1.776c-1.064,0-1.925,0.85-1.953,1.906h-2.181
			c-0.982,0-1.783,0.781-1.803,1.762c-0.01,0.46-0.019,1.004-0.024,1.621H79.815c-1.453,0-2.829,0.633-3.774,1.736
			c-0.942,1.101-1.355,2.553-1.132,3.985c1.455,9.346,7.593,39.101,26.651,41.157c0.193,0.305,0.384,0.611,0.585,0.901
			c1.298,1.869,2.569,3.767,3.703,5.776c2.466,4.366,4.583,8.235,5.068,12.627c-0.804,0.89-1.298,2.066-1.298,3.361
			c0,1.039,0.315,2.002,0.854,2.803h-2.599c-1.307,0-2.366,1.033-2.422,2.327H98.55c-1.343,0-2.433,1.09-2.433,2.434
			c0,1.343,1.09,2.432,2.433,2.432h32.187c1.344,0,2.434-1.089,2.434-2.432c0-1.344-1.09-2.434-2.434-2.434h-6.901
			c-0.057-1.294-1.115-2.327-2.422-2.327h-2.601c0.541-0.801,0.855-1.765,0.855-2.803c0-1.294-0.494-2.471-1.299-3.361
			c0.486-4.392,2.604-8.261,5.068-12.627c1.135-2.009,2.405-3.907,3.702-5.776c0.201-0.29,0.393-0.597,0.586-0.901
			c19.06-2.056,25.196-31.811,26.653-41.157C154.602,48.909,154.188,47.457,153.245,46.355z M81.446,50.965h11.845
			c0.225,9.031,1.211,22.596,4.774,32.973C87.226,78.554,82.733,58.269,81.446,50.965z M131.223,83.938
			c3.563-10.377,4.548-23.942,4.772-32.973h11.847C146.553,58.269,142.062,78.554,131.223,83.938z"/>
	</g>
	<path fill="#12214F" d="M42.801,182.635L42.801,182.635c14.673,25.415,41.79,41.069,71.135,41.069h1.413
		c29.347,0,56.463-15.654,71.136-41.069l0,0c-22.445-8.111-46.635-12.543-71.843-12.543
		C89.436,170.092,65.246,174.523,42.801,182.635z"/>
	<path fill="#DBA527" d="M41.214,179.886c22.913-8.324,47.64-12.866,73.429-12.866c25.79,0,50.518,4.542,73.43,12.866l16.125-27.931
		c-27.764-10.813-57.964-16.751-89.555-16.751c-31.588,0-61.79,5.938-89.555,16.751L41.214,179.886z"/>
	<path fill="#FFFFFF" d="M114.643,219.903c12.347,0,22.392-10.041,22.392-22.391c0-12.345-10.045-22.389-22.392-22.389
		c-12.346,0-22.39,10.044-22.39,22.389C92.253,209.862,102.296,219.903,114.643,219.903z M135.587,197.513
		c0,4.52-1.444,8.709-3.889,12.136h-5.294c-1.221,0-2.371-0.58-3.099-1.563l-2.075-2.805c-0.742-1-0.954-2.3-0.568-3.484
		l1.414-4.352c0.363-1.119,1.221-2.015,2.327-2.423l3.237-1.2c1.209-0.446,2.562-0.261,3.605,0.497l4.34,3.154
		C135.586,197.486,135.587,197.5,135.587,197.513z M115.366,183.824c0-1.233,0.591-2.396,1.59-3.12l4.238-3.079
		c4.161,1.374,7.747,4.018,10.301,7.471l-1.55,4.768c-0.365,1.122-1.223,2.015-2.328,2.426l-3.453,1.278
		c-1.209,0.447-2.563,0.261-3.605-0.498l-3.603-2.617c-0.999-0.725-1.59-1.886-1.59-3.119V183.824z M116.941,204.545
		c1.223,0,2.371,0.581,3.1,1.563l2.058,2.78c0.742,1,0.954,2.299,0.569,3.485l-1.654,5.089c-2.01,0.644-4.15,0.993-6.371,0.993
		c-2.199,0-4.32-0.34-6.314-0.972l-1.648-5.076c-0.383-1.176-0.178-2.464,0.549-3.461l2.049-2.814
		c0.725-0.996,1.884-1.588,3.116-1.588H116.941z M108.093,177.625l4.237,3.079c0.999,0.725,1.59,1.885,1.59,3.12v3.509
		c0,1.233-0.591,2.395-1.59,3.119l-3.658,2.659c-1.036,0.752-2.376,0.941-3.58,0.504l-3.267-1.183
		c-1.117-0.405-1.985-1.304-2.353-2.434l-1.621-4.989C100.401,181.598,103.965,178.989,108.093,177.625z M93.703,197.627l4.403-3.2
		c1.035-0.753,2.377-0.941,3.58-0.505l3.193,1.156c1.117,0.403,1.986,1.301,2.354,2.432l1.407,4.334
		c0.382,1.176,0.177,2.461-0.549,3.461l-1.98,2.718c-0.725,0.997-1.884,1.589-3.117,1.589h-5.431
		C95.154,206.219,93.726,202.088,93.703,197.627z"/>
	<path fill="#12214F" d="M125.905,116.221h4.637c2.929,0,5.492,2.205,5.688,5.128c0.215,3.205-2.332,5.882-5.493,5.882h-14.219l0,0
		c0,2.708,2.164,4.915,4.873,4.976c11.224,0.254,21.373,1.245,32.327,2.963c3.031,0.476,5.775-1.847,5.775-4.915V60.209
		c0-1.786-1.445-3.232-3.231-3.232l0,0c-1.124,5.175-2.948,11.753-5.82,17.965c-5.256,11.367-12.285,17.886-20.911,19.4
		c-1.095,1.581-2.34,3.434-3.418,5.342c-2.304,4.08-3.921,7.12-4.521,10.328c0.729,1.217,1.128,2.607,1.146,4.041
		C124.038,114.375,125.155,115.155,125.905,116.221z"/>
	<path fill="#12214F" d="M75.172,135.229c10.621-1.682,22.343-2.676,33.22-2.979c2.697-0.077,4.847-2.278,4.847-4.977v-0.043H98.744
		c-2.929,0-5.491-2.205-5.687-5.129c-0.214-3.204,2.333-5.881,5.493-5.881h4.832c0.75-1.065,1.868-1.846,3.166-2.167
		c0.02-1.433,0.419-2.824,1.148-4.041c-0.6-3.208-2.217-6.248-4.521-10.328c-1.078-1.909-2.323-3.762-3.418-5.342
		c-8.625-1.514-15.654-8.034-20.912-19.4c-2.872-6.213-4.697-12.79-5.82-17.965h-0.406c-1.786,0-3.233,1.447-3.233,3.232v70.105
		C69.386,133.388,72.137,135.71,75.172,135.229z"/>
	<path fill="#12214F" d="M162.773,62.364v70.33c0,2.349,1.639,4.382,3.936,4.868c11.769,2.492,23.344,5.836,34.678,10.033
		c2.536,0.94,5.377-0.083,6.728-2.424l2.789-4.831l-45.437-78.698C164.729,60.363,162.773,60.887,162.773,62.364z"/>
	<path fill="#12214F" d="M63.413,62.347l-45.029,77.994l2.79,4.831c1.352,2.341,4.193,3.364,6.728,2.424
		c11.206-4.15,22.647-7.463,34.278-9.947c2.293-0.489,3.928-2.52,3.928-4.865V63.069C66.106,61.592,64.151,61.068,63.413,62.347z"/>
	<g>
		<g>
			<path fill="#FFFFFF" d="M38.377,152.504c5.398-1.55,8.109-2.257,13.549-3.532c0.321,1.718,0.482,2.577,0.803,4.293
				c-3.189,0.748-4.781,1.146-7.956,1.989c0.295,1.387,0.442,2.081,0.736,3.468c2.684-0.712,4.028-1.052,6.723-1.695
				c0.307,1.612,0.461,2.418,0.769,4.03c-2.662,0.637-3.989,0.972-6.64,1.675c0.688,3.247,1.033,4.869,1.722,8.115
				c-2.072,0.55-3.105,0.835-5.168,1.428C41.099,164.367,40.191,160.413,38.377,152.504z"/>
			<path fill="#FFFFFF" d="M57.211,158.198c-0.577-3.271-0.234-5.993,1.069-8.158c1.304-2.166,3.428-3.548,6.339-4.089
				c2.983-0.554,5.415-0.035,7.25,1.515c1.838,1.549,2.934,3.964,3.327,7.222c0.286,2.363,0.177,4.354-0.309,5.97
				c-0.487,1.617-1.305,2.946-2.452,3.996c-1.147,1.05-2.649,1.738-4.518,2.083c-1.899,0.353-3.522,0.302-4.884-0.166
				c-1.363-0.468-2.568-1.392-3.619-2.782C58.365,162.398,57.625,160.538,57.211,158.198z M62.571,157.099
				c0.324,2.028,0.881,3.421,1.662,4.183c0.781,0.76,1.72,1.036,2.822,0.831c1.134-0.211,1.949-0.802,2.452-1.783
				c0.502-0.979,0.603-2.6,0.293-4.855c-0.261-1.899-0.784-3.23-1.576-3.987c-0.793-0.761-1.768-1.035-2.917-0.821
				c-1.102,0.205-1.919,0.821-2.443,1.836C62.339,153.519,62.244,155.053,62.571,157.099z"/>
			<path fill="#FFFFFF" d="M78.661,154.354c-0.364-3.308,0.151-5.996,1.587-8.05c1.436-2.055,3.637-3.261,6.568-3.564
				c3.003-0.312,5.391,0.403,7.12,2.097c1.729,1.692,2.666,4.19,2.848,7.47c0.132,2.382-0.103,4.357-0.691,5.931
				c-0.588,1.575-1.488,2.834-2.697,3.788s-2.748,1.519-4.63,1.713c-1.912,0.196-3.524,0.014-4.851-0.562
				c-1.325-0.577-2.464-1.597-3.421-3.068C79.539,158.639,78.922,156.723,78.661,154.354z M84.063,153.693
				c0.192,2.049,0.657,3.482,1.385,4.305c0.729,0.822,1.645,1.173,2.756,1.058c1.142-0.119,1.991-0.642,2.554-1.579
				c0.563-0.938,0.766-2.544,0.603-4.82c-0.138-1.914-0.573-3.285-1.313-4.105c-0.74-0.821-1.692-1.175-2.851-1.054
				c-1.109,0.115-1.961,0.663-2.548,1.634C84.061,150.104,83.87,151.625,84.063,153.693z"/>
			<path fill="#FFFFFF" d="M98.574,142.12c6.789-0.415,10.188-0.518,16.985-0.517c0,2.017,0,3.024-0.001,5.041
				c-2.247-0.001-3.371,0.01-5.618,0.056c0.1,6.148,0.15,9.222,0.25,15.37c-2.104,0.042-3.157,0.073-5.26,0.159
				c-0.199-6.144-0.298-9.217-0.497-15.361c-2.246,0.091-3.37,0.147-5.613,0.285C98.721,145.141,98.671,144.135,98.574,142.12z"/>
			<path fill="#FFFFFF" d="M119.367,141.631c4.184,0.059,6.277,0.128,10.46,0.345c1.742,0.091,3.059,0.661,3.936,1.697
				c0.877,1.034,1.27,2.272,1.187,3.708c-0.069,1.204-0.455,2.213-1.152,3.031c-0.463,0.545-1.12,0.958-1.966,1.24
				c1.244,0.429,2.139,1.098,2.683,1.997c0.543,0.898,0.773,1.998,0.695,3.296c-0.063,1.055-0.327,1.987-0.788,2.803
				c-0.463,0.813-1.063,1.439-1.803,1.884c-0.457,0.276-1.136,0.456-2.032,0.544c-1.193,0.116-1.982,0.17-2.368,0.151
				c-3.631-0.176-5.447-0.234-9.079-0.285C119.229,153.878,119.275,149.795,119.367,141.631z M124.785,149.77
				c0.949,0.033,1.425,0.052,2.374,0.093c0.851,0.036,1.449-0.104,1.798-0.426c0.346-0.321,0.534-0.803,0.56-1.442
				c0.024-0.592-0.124-1.065-0.447-1.416s-0.904-0.546-1.74-0.582c-0.975-0.042-1.463-0.061-2.438-0.095
				C124.849,147.448,124.827,148.223,124.785,149.77z M124.565,157.786c1.087,0.038,1.631,0.059,2.718,0.108
				c0.916,0.04,1.572-0.119,1.965-0.483c0.393-0.365,0.604-0.872,0.633-1.521c0.025-0.604-0.142-1.098-0.502-1.484
				c-0.361-0.386-1.016-0.602-1.961-0.645c-1.096-0.049-1.644-0.07-2.74-0.108C124.633,155.307,124.61,156.133,124.565,157.786z"/>
			<path fill="#FFFFFF" d="M149.169,160.807c-2.402-0.309-3.604-0.45-6.012-0.703c-0.446,1.306-0.669,1.96-1.109,3.269
				c-2.142-0.219-3.213-0.317-5.357-0.491c3.084-7.936,4.706-11.883,8.106-19.723c2.431,0.26,3.646,0.401,6.072,0.713
				c1.873,8.459,2.729,12.696,4.279,21.177c-2.188-0.336-3.285-0.492-5.477-0.783C149.474,162.882,149.373,162.189,149.169,160.807z
				 M148.507,156.282c-0.476-3.014-0.723-4.519-1.233-7.53c-1.048,2.828-1.563,4.245-2.58,7.083
				C146.22,156.002,146.982,156.092,148.507,156.282z"/>
			<path fill="#FFFFFF" d="M160.646,145.304c2.218,0.367,3.325,0.561,5.539,0.972c-0.899,6.07-1.35,9.105-2.249,15.178
				c3.302,0.612,4.95,0.944,8.238,1.662c-0.344,1.974-0.515,2.96-0.859,4.935c-5.314-1.16-7.98-1.67-13.326-2.551
				C159.051,157.421,159.583,153.382,160.646,145.304z"/>
			<path fill="#FFFFFF" d="M178.554,148.858c2.2,0.512,3.3,0.779,5.494,1.336c-1.217,6.001-1.825,9.002-3.04,15.004
				c3.272,0.832,4.904,1.272,8.161,2.208c-0.447,1.948-0.67,2.922-1.118,4.868c-5.261-1.511-7.903-2.197-13.207-3.43
				C176.328,160.85,177.07,156.853,178.554,148.858z"/>
		</g>
	</g>
</g>
</svg>
