<?xml version="1.0" encoding="utf-8"?>
<!-- Generator: Adobe Illustrator 16.0.3, SVG Export Plug-In . SVG Version: 6.00 Build 0)  -->
<!DOCTYPE svg PUBLIC "-//W3C//DTD SVG 1.1//EN" "http://www.w3.org/Graphics/SVG/1.1/DTD/svg11.dtd">
<svg version="1.1" id="Capa_1" xmlns="http://www.w3.org/2000/svg" xmlns:xlink="http://www.w3.org/1999/xlink" x="0px" y="0px"
	 width="228px" height="228px" viewBox="0 0 228 228" enable-background="new 0 0 228 228" xml:space="preserve">
<g>
	<g>
		<path fill="#12214F" d="M139.248,206.457c-7.497,3.104-15.731,4.82-24.373,4.82c-8.641,0-16.875-1.717-24.372-4.82
			c7.338,5.731,15.436,10.763,24.372,14.809C123.812,217.22,131.909,212.188,139.248,206.457z"/>
		<path fill="#12214F" d="M48.443,83.583c17.745-17.502,41.337-27.141,66.433-27.141s48.689,9.638,66.433,27.141
			c7.644,7.539,13.802,16.15,18.345,25.486c1.499-5.025,2.725-9.659,3.716-13.749c-8.707-1.685-15.276-9.25-15.276-18.332
			c0-1.488,0.183-2.935,0.516-4.324l-15.619-3.663v-17.67l0,0c-38.238-8.723-77.989-8.723-116.227,0l0,0v17.67l-15.62,3.663
			c0.333,1.389,0.516,2.836,0.516,4.324c0,9.082-6.569,16.647-15.277,18.332c0.991,4.089,2.217,8.723,3.717,13.75
			C34.64,99.733,40.799,91.122,48.443,83.583z"/>
		<path fill="#12214F" d="M198.386,113.196c-14.052-31.741-46.151-53.928-83.51-53.928c-37.358,0-69.458,22.188-83.51,53.928
			c4.734,14.999,11.811,32.909,22.16,50.222c-1.098-4.595-1.682-9.385-1.682-14.31c0-34.337,28.22-62.171,63.032-62.171
			c34.813,0,63.032,27.834,63.032,62.171c0,4.925-0.582,9.715-1.681,14.31C186.576,146.105,193.652,128.195,198.386,113.196z"/>
	</g>
	<path fill="#DBA527" d="M114.875,41.963c19.748,0,39.517,2.226,58.759,6.614l2.219,0.506v2.248v15.437l13.417,3.147l2.785,0.653
		l-0.66,2.748c-0.289,1.21-0.438,2.445-0.438,3.672c0,7.562,5.452,14.105,12.962,15.559l2.93,0.567l-0.693,2.864
		c-4.062,16.76-11.844,41.84-25.854,66.141c-16.892,29.301-38.502,50.064-64.231,61.716l-1.196,0.541l-1.195-0.541
		c-25.729-11.651-47.339-32.415-64.232-61.716c-14.01-24.301-21.792-49.381-25.852-66.141l-0.694-2.864l2.928-0.567
		c7.511-1.453,12.962-7.997,12.962-15.559c0-1.227-0.147-2.462-0.438-3.672l-0.66-2.748l2.785-0.653l13.417-3.147V51.331v-2.248
		l2.22-0.506C75.357,44.189,95.127,41.963,114.875,41.963L114.875,41.963z M114.875,39.137c-19.965,0-39.952,2.25-59.404,6.687
		l-2.219,0.506l-2.22,0.506v2.247v2.248v13.205l-11.216,2.63l-2.785,0.654l-2.785,0.653l0.66,2.748l0.66,2.747
		c0.24,0.998,0.36,2.013,0.36,3.021c0,6.214-4.478,11.592-10.649,12.786l-2.929,0.567l-2.928,0.566l0.693,2.862l0.694,2.863
		c4.104,16.939,11.972,42.293,26.149,66.884c17.195,29.824,39.241,50.981,65.526,62.885l1.196,0.542l1.195,0.541l1.196-0.541
		l1.195-0.542c26.286-11.903,48.332-33.061,65.527-62.885c14.176-24.591,22.044-49.944,26.148-66.884l0.694-2.863l0.693-2.862
		l-2.93-0.566l-2.927-0.567c-6.172-1.194-10.651-6.572-10.651-12.786c0-1.008,0.121-2.023,0.362-3.021l0.66-2.747l0.66-2.748
		l-2.785-0.653l-2.787-0.654l-11.215-2.63V51.331v-2.248v-2.247l-2.219-0.506l-2.219-0.506
		C154.828,41.386,134.841,39.137,114.875,39.137L114.875,39.137z"/>
	<path fill="#12214F" d="M114.875,89.764c-33.176,0-60.167,26.621-60.167,59.344c0,8.753,1.933,17.068,5.397,24.556
		c5.877,8.514,12.631,16.697,20.375,24.107c9.754,6.727,21.614,10.681,34.395,10.681c12.78,0,24.641-3.954,34.396-10.681
		c7.744-7.41,14.496-15.594,20.373-24.107c3.466-7.487,5.398-15.803,5.398-24.556C175.043,116.385,148.052,89.764,114.875,89.764z
		 M114.875,202.62c-30.015,0-54.436-24.086-54.436-53.691c0-29.607,24.42-53.694,54.436-53.694
		c30.017,0,54.437,24.086,54.437,53.694C169.312,178.534,144.892,202.62,114.875,202.62z"/>
	<path fill="#12214F" d="M114.875,199.795c28.437,0,51.573-22.818,51.573-50.866c0-28.049-23.136-50.867-51.573-50.867
		c-28.437,0-51.571,22.818-51.571,50.867C63.304,176.977,86.438,199.795,114.875,199.795z M163.113,148.929
		c0,10.268-3.325,19.78-8.956,27.563h-12.191c-2.814,0-5.463-1.315-7.137-3.547l-4.782-6.37c-1.708-2.275-2.196-5.226-1.31-7.918
		l3.256-9.885c0.841-2.548,2.814-4.577,5.362-5.507l7.456-2.724c2.785-1.018,5.901-0.595,8.305,1.127l9.995,7.163
		C163.111,148.863,163.113,148.896,163.113,148.929z M116.542,117.826c0-2.804,1.36-5.438,3.66-7.086l9.761-6.996
		c9.583,3.122,17.848,9.122,23.726,16.97l-3.568,10.832c-0.839,2.548-2.814,4.577-5.36,5.508l-7.955,2.906
		c-2.785,1.016-5.901,0.594-8.304-1.129l-8.299-5.947c-2.3-1.647-3.66-4.281-3.66-7.086V117.826z M120.171,164.902
		c2.814,0,5.461,1.315,7.137,3.547l4.74,6.316c1.71,2.275,2.196,5.226,1.31,7.919l-3.81,11.565
		c-4.63,1.461-9.559,2.258-14.673,2.258c-5.067,0-9.951-0.78-14.543-2.215l-3.799-11.533c-0.879-2.67-0.408-5.592,1.267-7.861
		l4.717-6.393c1.671-2.264,4.339-3.604,7.18-3.604H120.171z M99.787,103.745l9.761,6.996c2.3,1.648,3.661,4.282,3.661,7.086v7.974
		c0,2.804-1.361,5.438-3.661,7.086l-8.426,6.037c-2.385,1.709-5.472,2.139-8.245,1.149l-7.523-2.689
		c-2.574-0.92-4.575-2.96-5.42-5.528l-3.733-11.331C82.07,112.769,90.282,106.841,99.787,103.745z M66.644,149.182l10.142-7.269
		c2.386-1.709,5.474-2.139,8.246-1.149l7.354,2.629c2.574,0.921,4.574,2.959,5.421,5.528l3.242,9.842
		c0.88,2.67,0.408,5.594-1.266,7.862l-4.561,6.178c-1.671,2.265-4.339,3.605-7.179,3.605H75.534
		C69.987,168.703,66.698,159.315,66.644,149.182z"/>
	<polygon fill="#12214F" points="115,-0.029 119.229,8.419 128.683,9.775 121.842,16.351 123.456,25.637 115,21.253 106.546,25.637 
		108.161,16.351 101.32,9.775 110.773,8.419 	"/>
	<polygon fill="#12214F" points="83.751,12.708 87.063,19.331 94.472,20.392 89.112,25.546 90.377,32.825 83.751,29.387 
		77.124,32.825 78.39,25.546 73.028,20.392 80.438,19.331 	"/>
	<polygon fill="#12214F" points="146,12.708 142.688,19.331 135.279,20.392 140.64,25.546 139.374,32.825 146,29.387 
		152.628,32.825 151.362,25.546 156.723,20.392 149.315,19.331 	"/>
	<g>
		<path fill="#FFFFFF" d="M37.317,116.711l3.81-7.534l2.317,1.14l-2.395,4.735l2.855,1.404l2.237-4.423l2.299,1.131l-2.237,4.423
			l5.023,2.472l-1.415,2.798L37.317,116.711z"/>
		<path fill="#FFFFFF" d="M57.487,98.134c3.62,2.766,4.114,6.608,1.615,9.792c-2.538,3.231-6.496,3.232-9.641,0.829
			c-3.31-2.528-4.146-6.502-1.621-9.718C50.467,95.693,54.44,95.807,57.487,98.134z M51.455,106.117
			c2.161,1.651,4.473,1.813,5.767,0.165c1.306-1.665,0.449-3.844-1.696-5.483c-1.982-1.514-4.421-1.879-5.754-0.182
			C48.465,102.281,49.308,104.477,51.455,106.117z"/>
		<path fill="#FFFFFF" d="M70.576,86.92c2.915,3.481,2.542,7.336-0.604,9.899c-3.194,2.603-7.055,1.746-9.588-1.279
			c-2.664-3.182-2.596-7.24,0.583-9.829C64.271,83.019,68.122,83.99,70.576,86.92z M62.915,93.398
			c1.742,2.079,3.959,2.738,5.588,1.411c1.645-1.34,1.295-3.651-0.434-5.716c-1.596-1.906-3.895-2.789-5.572-1.423
			C60.853,89.01,61.188,91.334,62.915,93.398z"/>
		<path fill="#FFFFFF" d="M74.287,80.061l-3.293,1.771l-1.269-2.297l9.423-5.065l1.27,2.296l-3.349,1.8l5.415,9.798L79.7,89.858
			L74.287,80.061z"/>
		<path fill="#FFFFFF" d="M84.068,72.62c0.736-0.409,2.294-1.038,3.792-1.519c1.833-0.588,3.013-0.774,4.165-0.521
			c1.087,0.188,2.052,0.869,2.442,2.053c0.385,1.167,0.055,2.476-1.262,3.501l0.012,0.039c1.652-0.079,3.147,0.687,3.705,2.377
			c0.392,1.186,0.147,2.295-0.461,3.223c-0.716,1.067-2.19,2.014-4.83,2.862c-1.478,0.474-2.613,0.731-3.314,0.849L84.068,72.62z
			 M88.699,76.678l0.985-0.316c1.576-0.506,2.212-1.42,1.891-2.393c-0.328-0.99-1.27-1.268-2.629-0.832
			c-0.65,0.208-1.012,0.368-1.255,0.489L88.699,76.678z M90.618,82.488c0.308-0.057,0.662-0.171,1.174-0.335
			c1.36-0.436,2.395-1.328,1.939-2.707c-0.437-1.322-1.812-1.46-3.309-0.979l-1.025,0.33L90.618,82.488z"/>
		<path fill="#FFFFFF" d="M103.998,77.852l-0.571,3.625l-3.252,0.375l2.617-14.169l4.116-0.475l5.922,13.183l-3.375,0.39
			l-1.486-3.388L103.998,77.852z M107.243,75.132l-1.209-2.802c-0.343-0.783-0.71-1.771-1.012-2.558l-0.042,0.005
			c-0.109,0.835-0.191,1.894-0.325,2.711l-0.479,2.997L107.243,75.132z"/>
		<path fill="#FFFFFF" d="M116.687,66.793l3.161,0.209l-0.757,11.133l5.54,0.367l-0.177,2.609l-8.702-0.576L116.687,66.793z"/>
		<path fill="#FFFFFF" d="M130.581,68.209l3.085,0.719l-2.601,10.857l5.402,1.259l-0.61,2.546l-8.487-1.978L130.581,68.209z"/>
		<path fill="#FFFFFF" d="M150.644,77.549l-3.34-1.683l1.204-2.329l9.558,4.812l-1.205,2.331l-3.395-1.711l-5.145,9.938
			l-2.822-1.422L150.644,77.549z"/>
		<path fill="#FFFFFF" d="M164.192,92.426l-4.104-3.048l-1.995,2.611l4.585,3.405l-1.56,2.04l-7.113-5.287l8.402-11l6.882,5.114
			l-1.558,2.04l-4.352-3.234l-1.746,2.285l4.105,3.05L164.192,92.426z"/>
		<path fill="#FFFFFF" d="M168.353,99.496l-3.324,1.651l-2.2-2.389l13.204-6.146l2.786,3.024l-7.422,12.422l-2.286-2.48l1.93-3.163
			L168.353,99.496z M172.482,100.516l1.607-2.6c0.446-0.732,1.045-1.6,1.519-2.301l-0.027-0.03
			c-0.754,0.399-1.674,0.949-2.426,1.317l-2.75,1.361L172.482,100.516z"/>
		<path fill="#FFFFFF" d="M183.521,117.838c1.438-0.856,3.184-1.882,4.958-2.853l-0.029-0.053c-1.771,0.477-3.79,0.927-5.483,1.245
			l-5.589,1.14l-1.196-2.127l4.007-3.872c1.211-1.176,2.72-2.538,4.152-3.696l-0.019-0.036c-1.688,0.831-3.604,1.808-5.176,2.551
			l-4.761,2.322l-1.416-2.52l12.646-5.91l2.039,3.628l-3.416,3.41c-1.2,1.146-2.512,2.354-3.792,3.406l0.029,0.054
			c1.604-0.433,3.448-0.905,5.028-1.254l4.782-0.934l1.999,3.557l-11.842,7.339l-1.496-2.662L183.521,117.838z"/>
	</g>
</g>
</svg>
