<?xml version="1.0" encoding="utf-8"?>
<!-- Generator: Adobe Illustrator 16.0.3, SVG Export Plug-In . SVG Version: 6.00 Build 0)  -->
<!DOCTYPE svg PUBLIC "-//W3C//DTD SVG 1.1//EN" "http://www.w3.org/Graphics/SVG/1.1/DTD/svg11.dtd">
<svg version="1.1" id="Capa_1" xmlns="http://www.w3.org/2000/svg" xmlns:xlink="http://www.w3.org/1999/xlink" x="0px" y="0px"
	 width="228px" height="228px" viewBox="0 0 228 228" enable-background="new 0 0 228 228" xml:space="preserve">
<g>
	<g>
		<path fill="#12214F" d="M0,107.434h20.261v5.698H8.231v4.63h10.275v5.354H8.231v10.837H0V107.434z"/>
		<path fill="#12214F" d="M25.497,120.712c0-4.329,1.206-7.7,3.617-10.113c2.413-2.412,5.771-3.618,10.077-3.618
			c4.414,0,7.814,1.186,10.203,3.555c2.388,2.37,3.582,5.69,3.582,9.958c0,3.1-0.522,5.642-1.565,7.625
			c-1.042,1.984-2.55,3.528-4.522,4.63c-1.972,1.105-4.43,1.655-7.372,1.655c-2.99,0-5.466-0.474-7.425-1.429
			c-1.96-0.951-3.549-2.46-4.768-4.521C26.105,126.393,25.497,123.812,25.497,120.712z M33.691,120.747
			c0,2.679,0.498,4.603,1.493,5.771c0.995,1.17,2.349,1.755,4.061,1.755c1.761,0,3.123-0.573,4.088-1.718
			c0.965-1.146,1.447-3.202,1.447-6.17c0-2.496-0.503-4.32-1.511-5.472c-1.006-1.151-2.372-1.727-4.097-1.727
			c-1.652,0-2.979,0.584-3.98,1.754C34.191,116.111,33.691,118.047,33.691,120.747z"/>
		<path fill="#12214F" d="M58.209,120.712c0-4.329,1.207-7.7,3.618-10.113c2.412-2.412,5.771-3.618,10.077-3.618
			c4.414,0,7.814,1.186,10.202,3.555c2.389,2.37,3.582,5.69,3.582,9.958c0,3.1-0.521,5.642-1.564,7.625
			c-1.043,1.984-2.55,3.528-4.522,4.63c-1.971,1.105-4.429,1.655-7.372,1.655c-2.99,0-5.466-0.474-7.425-1.429
			c-1.96-0.951-3.548-2.46-4.767-4.521C58.819,126.393,58.209,123.812,58.209,120.712z M66.405,120.747
			c0,2.679,0.498,4.603,1.492,5.771c0.995,1.17,2.348,1.755,4.062,1.755c1.761,0,3.123-0.573,4.088-1.718
			c0.965-1.146,1.448-3.202,1.448-6.17c0-2.496-0.504-4.32-1.512-5.472c-1.007-1.151-2.373-1.727-4.097-1.727
			c-1.654,0-2.979,0.584-3.98,1.754C66.905,116.111,66.405,118.047,66.405,120.747z"/>
		<path fill="#12214F" d="M89.132,107.434h24.91v6.548h-8.358v19.972h-8.193v-19.972h-8.358V107.434z"/>
		<path fill="#12214F" d="M119.622,107.434h15.339c2.557,0,4.521,0.633,5.89,1.899s2.052,2.834,2.052,4.703
			c0,1.568-0.487,2.913-1.465,4.034c-0.65,0.748-1.604,1.339-2.858,1.772c1.905,0.459,3.309,1.245,4.207,2.361
			c0.896,1.116,1.347,2.518,1.347,4.206c0,1.375-0.32,2.611-0.959,3.709c-0.639,1.096-1.513,1.966-2.623,2.604
			c-0.687,0.398-1.724,0.688-3.11,0.869c-1.845,0.242-3.07,0.362-3.673,0.362h-14.146V107.434z M127.888,117.835h3.563
			c1.279,0,2.169-0.22,2.669-0.66c0.5-0.439,0.75-1.076,0.75-1.909c0-0.771-0.25-1.374-0.75-1.808
			c-0.5-0.434-1.371-0.651-2.614-0.651h-3.618V117.835z M127.888,128.256h4.18c1.411,0,2.406-0.251,2.984-0.752
			c0.578-0.499,0.868-1.172,0.868-2.017c0-0.783-0.285-1.414-0.859-1.891c-0.572-0.477-1.576-0.714-3.011-0.714h-4.162V128.256z"/>
		<path fill="#12214F" d="M165.944,129.575h-9.304l-1.292,4.379h-8.367l9.966-26.52h8.939l9.965,26.52h-8.581L165.944,129.575z
			 M164.244,123.841l-2.927-9.533l-2.897,9.533H164.244z"/>
		<path fill="#12214F" d="M180.31,107.434h8.195v19.989h12.788v6.531H180.31V107.434z"/>
		<path fill="#12214F" d="M206.873,107.434h8.194v19.989h12.789v6.531h-20.983V107.434z"/>
	</g>
	<g>
		<g>
			<path fill="#DBA527" d="M104.357,170.064v35.49c3.16,2.025,6.392,3.883,9.699,5.552c3.309-1.669,6.54-3.526,9.701-5.552v-35.477
				c-3.271-0.146-6.559-0.221-9.852-0.221C110.714,169.857,107.528,169.93,104.357,170.064z"/>
			<path fill="#DBA527" d="M84.956,189.995v-18.241c-4.757,0.635-9.411,1.421-13.905,2.362
				C75.435,179.914,80.078,185.206,84.956,189.995z"/>
			<path fill="#DBA527" d="M157.02,174.17c-4.48-0.943-9.119-1.734-13.862-2.375v18.2
				C148.019,185.221,152.648,179.949,157.02,174.17z"/>
		</g>
		<path fill="#12214F" d="M114.056,81.436c21.067,0,38.206-17.138,38.206-38.204c0-21.066-17.139-38.205-38.206-38.205
			c-21.065,0-38.204,17.138-38.204,38.205C75.852,64.297,92.991,81.436,114.056,81.436z M149.791,43.231
			c0,7.712-2.463,14.856-6.635,20.703h-9.032c-2.083,0-4.045-0.989-5.286-2.665l-3.543-4.785c-1.266-1.709-1.626-3.924-0.969-5.947
			l2.412-7.424c0.621-1.913,2.084-3.437,3.972-4.136l5.524-2.045c2.063-0.764,4.371-0.447,6.151,0.846l7.404,5.38
			C149.79,43.183,149.791,43.207,149.791,43.231z M115.291,19.872c0-2.106,1.009-4.084,2.712-5.322l7.23-5.254
			c7.099,2.344,13.221,6.852,17.575,12.746l-2.643,8.136c-0.622,1.913-2.085,3.437-3.972,4.136l-5.892,2.182
			c-2.064,0.764-4.372,0.446-6.152-0.847l-6.147-4.467c-1.703-1.237-2.712-3.216-2.712-5.322V19.872z M117.979,55.229
			c2.086,0,4.048,0.988,5.287,2.665l3.513,4.744c1.265,1.708,1.626,3.925,0.969,5.947l-2.822,8.686
			c-3.429,1.098-7.079,1.696-10.869,1.696c-3.754,0-7.372-0.585-10.774-1.664l-2.813-8.662c-0.652-2.004-0.303-4.2,0.938-5.905
			l3.494-4.8c1.238-1.701,3.215-2.707,5.318-2.707H117.979z M102.88,9.296l7.23,5.253c1.704,1.238,2.712,3.216,2.712,5.322v5.989
			c0,2.106-1.009,4.084-2.712,5.322l-6.241,4.535c-1.767,1.283-4.056,1.606-6.108,0.863l-5.574-2.02
			c-1.907-0.691-3.388-2.223-4.015-4.153l-2.766-8.511C89.754,16.073,95.837,11.621,102.88,9.296z M78.327,43.421l7.512-5.459
			c1.767-1.283,4.056-1.606,6.108-0.863l5.448,1.975c1.907,0.69,3.389,2.223,4.017,4.152l2.401,7.392
			c0.651,2.005,0.302,4.2-0.938,5.904l-3.378,4.641c-1.238,1.701-3.215,2.707-5.318,2.707h-9.268
			C80.803,58.085,78.366,51.034,78.327,43.421z"/>
		<g>
			<path fill="#12214F" d="M188.033,140.411c-2.863,6.415-6.108,12.944-9.789,19.42c-16.745,29.445-38.142,50.301-63.596,61.987
				l-0.592,0.271l-0.59-0.271c-25.454-11.687-46.851-32.542-63.595-61.987c-3.681-6.476-6.926-13.005-9.79-19.42h-3.099
				c3.021,6.865,6.477,13.872,10.427,20.818c17.044,29.973,38.872,51.224,64.876,63.162l1.771,0.813l1.773-0.813
				c26.004-11.938,47.832-33.189,64.876-63.162c3.949-6.946,7.407-13.953,10.427-20.818H188.033z"/>
			<path fill="#12214F" d="M155.089,43.408c5.842,0.937,11.654,2.067,17.418,3.4l1.097,0.254V64.99l15.913,3.784l-0.326,1.376
				c-0.317,1.337-0.478,2.703-0.478,4.059c0,8.36,5.945,15.595,14.137,17.203l1.447,0.284l-0.343,1.435
				c-0.624,2.609-1.337,5.42-2.146,8.396h2.933c0.735-2.73,1.391-5.322,1.968-7.739l1.028-4.303l-4.341-0.852
				c-6.866-1.348-11.852-7.415-11.852-14.424c0-1.137,0.135-2.282,0.4-3.406l0.98-4.13l-16.49-3.921V44.811l-3.289-0.761
				c-6.005-1.39-12.063-2.564-18.152-3.527c0.06,0.896,0.1,1.798,0.1,2.708C155.093,43.291,155.089,43.349,155.089,43.408z"/>
			<path fill="#12214F" d="M23.373,101.527h2.932c-0.809-2.977-1.522-5.787-2.146-8.396l-0.343-1.435l1.446-0.284
				C33.455,89.804,39.4,82.569,39.4,74.209c0-1.356-0.16-2.723-0.477-4.059l-0.327-1.376L54.51,64.99V47.062l1.096-0.254
				c5.764-1.333,11.576-2.464,17.418-3.4c0-0.059-0.004-0.117-0.004-0.176c0-0.911,0.041-1.813,0.1-2.708
				c-6.091,0.962-12.146,2.137-18.151,3.526l-3.29,0.761v17.942l-16.489,3.921l0.979,4.13c0.266,1.123,0.4,2.269,0.4,3.406
				c0,7.01-4.984,13.077-11.852,14.424l-4.341,0.852l1.028,4.303C21.982,96.205,22.638,98.797,23.373,101.527z"/>
		</g>
		<path fill="#12214F" d="M41.631,140.411c13.687,30.464,36.183,63.483,72.424,80.121c36.243-16.638,58.739-49.657,72.427-80.121
			H41.631z M114.056,214.269c-18.253-8.913-34.289-22.989-47.856-41.974c14.274-3.364,30.499-5.271,47.706-5.271
			c17.313,0,33.627,1.929,47.965,5.331C148.312,191.31,132.291,205.365,114.056,214.269z"/>
		<path fill="#12214F" d="M187.297,74.208c0-1.51,0.183-2.977,0.516-4.385l-15.624-3.715V48.187l0,0
			c-5.683-1.314-11.398-2.428-17.136-3.352c-0.848,21.885-18.906,39.432-40.997,39.432c-22.089,0-40.147-17.546-40.995-39.432
			c-5.738,0.923-11.454,2.037-17.135,3.352l0,0v17.921l-15.625,3.715c0.333,1.408,0.515,2.875,0.515,4.385
			c0,9.21-6.571,16.883-15.28,18.592c0.643,2.689,1.386,5.615,2.237,8.726H200.34c0.851-3.111,1.595-6.037,2.238-8.726
			C193.868,91.092,187.297,83.419,187.297,74.208z M197.578,98.083H30.333L29.766,96.1h168.326L197.578,98.083z"/>
	</g>
	<g>
		<g>
			<path fill="#FFFFFF" d="M74.929,148.44c6.504-1.136,9.773-1.584,16.325-2.245c0.162,1.591,0.242,2.389,0.402,3.98
				c-2.16,0.217-3.238,0.34-5.394,0.609c0.608,4.845,0.912,7.266,1.519,12.108c-1.998,0.25-2.996,0.389-4.991,0.687
				c-0.722-4.827-1.083-7.24-1.806-12.068c-2.15,0.321-3.224,0.497-5.369,0.87C75.341,150.805,75.204,150.017,74.929,148.44z"/>
			<path fill="#FFFFFF" d="M94.901,145.855c5.785-0.491,8.683-0.646,14.481-0.768c0.029,1.385,0.043,2.076,0.072,3.46
				c-3.574,0.075-5.362,0.147-8.932,0.365c0.063,1.03,0.093,1.543,0.157,2.571c3.274-0.199,4.912-0.27,8.19-0.349
				c0.032,1.323,0.047,1.982,0.08,3.304c-3.23,0.079-4.844,0.148-8.069,0.345c0.078,1.274,0.116,1.912,0.194,3.189
				c3.525-0.216,5.29-0.287,8.82-0.359c0.029,1.468,0.044,2.201,0.073,3.669c-5.483,0.11-8.227,0.254-13.696,0.719
				C95.724,155.542,95.451,152.313,94.901,145.855z"/>
			<path fill="#FFFFFF" d="M123.93,158.786c-2.31-0.104-3.465-0.143-5.775-0.185c-0.342,1.064-0.509,1.598-0.841,2.662
				c-2.054-0.03-3.08-0.031-5.133-0.014c1.977-5.442,4.128-10.854,6.424-16.171c2.359,0.045,3.539,0.083,5.897,0.188
				c1.951,5.454,3.751,10.993,5.375,16.552c-2.101-0.155-3.151-0.219-5.255-0.323C124.349,160.412,124.211,159.87,123.93,158.786z
				 M123.015,155.24c-0.645-2.358-0.976-3.537-1.661-5.89c-0.824,2.305-1.228,3.46-2.013,5.771
				C120.812,155.157,121.546,155.18,123.015,155.24z"/>
			<path fill="#FFFFFF" d="M133.947,145.89c2.838,0.246,4.256,0.393,7.087,0.725c0.63,4.048,0.92,6.071,1.453,10.118
				c1.546-3.775,2.342-5.658,3.98-9.408c2.822,0.402,4.231,0.625,7.043,1.116c-1.113,6.385-1.672,9.578-2.786,15.963
				c-1.628-0.284-2.442-0.419-4.074-0.671c0.755-4.885,1.133-7.326,1.888-12.213c-2.086,4.68-3.093,7.03-5.035,11.751
				c-1.479-0.205-2.22-0.302-3.701-0.483c-0.664-5.059-1.032-7.589-1.845-12.645c-0.522,4.913-0.784,7.372-1.307,12.287
				c-1.638-0.174-2.46-0.252-4.101-0.395C133.108,155.577,133.389,152.347,133.947,145.89z"/>
		</g>
	</g>
</g>
</svg>
