<?xml version="1.0" encoding="utf-8"?>
<!-- Generator: Adobe Illustrator 16.0.3, SVG Export Plug-In . SVG Version: 6.00 Build 0)  -->
<!DOCTYPE svg PUBLIC "-//W3C//DTD SVG 1.1//EN" "http://www.w3.org/Graphics/SVG/1.1/DTD/svg11.dtd">
<svg version="1.1" id="Capa_1" xmlns="http://www.w3.org/2000/svg" xmlns:xlink="http://www.w3.org/1999/xlink" x="0px" y="0px"
	 width="228px" height="228px" viewBox="0 0 228 228" enable-background="new 0 0 228 228" xml:space="preserve">
<g>
	<path fill="#DBA527" d="M154.609,147.804c-29.322,0-53.178-23.855-53.178-53.178c0-14.303,5.686-27.296,14.905-36.863
		c-4.329-0.304-20.034-0.526-29.673,10.99c-11.261,13.454,4.43,25.195-5.947,39.873c0,0,9.506-2.248,9.269-11.925
		c-0.237-9.678-0.812-15.466,2.088-15.549c9.128-0.259,6.486,31.418-10.913,36.188c-17.401,4.771-18.033,26.235-18.033,26.235
		s3.366-14.987,14.142-15.961c8.462-0.765,10.882,1.744,10.915,6.146c0.028,3.919-8.922,35.959-42.708,35.407
		c-7.593-0.366-13.729-7.767-27.144-0.916c0,0,17.559,0.916,14.521,5.778c-3.036,4.862-20.344-1.039-23.38-11.863
		c-2.484-8.854-0.262-18.412,1.676-21.968c-0.547-2.438-1.022-4.901-1.32-6.521c-3.551,6.31-19.895,38.12-0.539,54.54
		c14.399,12.216,34.097,6.757,45.993,1.743c11.895-5.015,31.889-14.434,35.812-11.865s-2.531,13.21-22.146,14.861
		c-19.614,1.65-30.781,15.961-30.781,15.961s13.951-13.82,33.313-12.476c19.359,1.345,38.215-6.604,39.733-16.39
		c1.52-9.783,17.969-21.158,26.828-18.835c8.857,2.324-4.682,15.411-13.287,14.8c0,0,12.828,2.094,22.65-7.767
		c7.939-7.97,6.027-16.277,16.657-21.302C160.99,147.5,157.837,147.804,154.609,147.804z"/>
	<path fill="#12214F" d="M154.609,144.135c27.301,0,49.511-22.209,49.511-49.509c0-27.299-22.21-49.509-49.511-49.509
		c-27.3,0-49.51,22.21-49.51,49.509C105.1,121.926,127.31,144.135,154.609,144.135z M200.92,94.625c0,9.995-3.194,19.253-8.6,26.829
		h-11.704c-2.701,0-5.243-1.28-6.852-3.452l-4.591-6.201c-1.64-2.214-2.107-5.085-1.256-7.707l3.126-9.62
		c0.807-2.479,2.702-4.454,5.147-5.36l7.158-2.651c2.674-0.991,5.664-0.578,7.973,1.097l9.596,6.972
		C200.918,94.563,200.92,94.594,200.92,94.625z M156.209,64.354c0-2.729,1.307-5.293,3.516-6.897l9.37-6.809
		c9.2,3.038,17.133,8.878,22.776,16.517l-3.427,10.545c-0.805,2.479-2.7,4.454-5.146,5.359l-7.635,2.828
		c-2.675,0.99-5.666,0.579-7.973-1.097l-7.967-5.789c-2.209-1.604-3.516-4.168-3.516-6.898V64.354z M159.693,110.175
		c2.703,0,5.244,1.28,6.852,3.452l4.552,6.147c1.64,2.215,2.108,5.086,1.256,7.707l-3.657,11.257
		c-4.444,1.423-9.175,2.197-14.086,2.197c-4.865,0-9.554-0.759-13.962-2.155L137,127.556c-0.845-2.599-0.392-5.444,1.215-7.652
		l4.53-6.221c1.604-2.204,4.166-3.508,6.892-3.508H159.693z M140.125,50.648l9.37,6.809c2.208,1.604,3.516,4.168,3.516,6.897v7.76
		c0,2.729-1.308,5.293-3.516,6.897l-8.089,5.877c-2.289,1.663-5.254,2.082-7.914,1.118l-7.224-2.618
		c-2.471-0.896-4.392-2.881-5.203-5.381l-3.584-11.029C123.115,59.431,131,53.662,140.125,50.648z M108.306,94.873l9.737-7.075
		c2.289-1.664,5.255-2.082,7.915-1.118l7.062,2.558c2.471,0.896,4.391,2.881,5.203,5.381l3.113,9.579
		c0.844,2.598,0.392,5.443-1.217,7.652l-4.377,6.015c-1.604,2.203-4.166,3.507-6.893,3.507h-12.01
		C111.516,113.874,108.357,104.737,108.306,94.873z"/>
	<g>
		<path fill="#12214F" d="M118.354,4.663C57.607,4.663,8.186,54.084,8.186,114.831c0,17.518,4.116,34.089,11.423,48.81
			c1.188-0.477,2.358-0.869,3.514-1.171c-7.204-14.343-11.268-30.524-11.268-47.639c0-58.724,47.774-106.499,106.498-106.499
			c58.724,0,106.499,47.775,106.499,106.499s-47.775,106.5-106.499,106.5c-22.753,0-43.859-7.176-61.182-19.379
			c-1.436,0.473-2.801,1.006-4.082,1.577C71.369,217.016,93.946,225,118.354,225c60.748,0,110.169-49.422,110.169-110.169
			C228.522,54.084,179.102,4.663,118.354,4.663z"/>
	</g>
	<path fill="#12214F" d="M118.354,10.167c-57.805,0-104.666,46.86-104.666,104.664c0,17,4.057,33.051,11.249,47.243
		c1.394-0.255,2.773-0.392,4.145-0.392c4.288,0.001,7.71,1.221,10.73,2.296c2.141,0.763,3.992,1.422,5.783,1.52
		c0.248,0.004,0.49,0.006,0.735,0.006c5.906,0,11.264-1.083,16.063-3.205c-10.865-12.798-17.423-29.365-17.423-47.468
		c0-40.528,32.855-73.384,73.385-73.384c6.809,0,13.4,0.932,19.656,2.667c5.228-1.722,10.804-2.667,16.599-2.667
		c29.324,0,53.179,23.856,53.179,53.179c0,16.289-7.368,30.881-18.938,40.644c-0.36,1.249-0.767,2.478-1.19,3.697l-0.38,1.061
		c-10.279,28.114-37.252,48.188-68.926,48.188c-2.394,0-4.757-0.118-7.091-0.342c-2.347,2.714-5.75,5.155-10.079,7.169
		c-7.235,3.363-16.251,5.216-25.389,5.216c-1.527,0-3.066-0.053-4.573-0.157c-0.796-0.055-1.605-0.085-2.404-0.085
		c-3.363,0-6.532,0.498-9.451,1.28c16.797,11.48,37.107,18.199,58.987,18.199c57.804,0,104.665-46.86,104.665-104.665
		C223.02,57.027,176.158,10.167,118.354,10.167z"/>
	<g>
		<path fill="#12214F" d="M179.844,143.543c-10.835,23.115-34.318,39.17-61.49,39.17c-1.342,0-2.673-0.044-3.996-0.122
			c-0.401,1.221-1,2.406-1.773,3.558c1.904,0.151,3.826,0.232,5.769,0.232c30.153,0,55.995-18.757,66.509-45.21L179.844,143.543z"/>
		<path fill="#12214F" d="M67.369,159.594c-10.511-11.958-16.896-27.628-16.896-44.763c0-37.429,30.452-67.881,67.88-67.881
			c3.741,0,7.41,0.31,10.988,0.894c1.808-0.979,3.684-1.847,5.609-2.615c-5.329-1.271-10.886-1.948-16.598-1.948
			c-39.452,0-71.549,32.097-71.549,71.55c0,17.801,6.536,34.104,17.333,46.638C65.247,160.901,66.326,160.28,67.369,159.594z"/>
	</g>
	<g>
		<path fill="#FFFFFF" d="M25.195,142.63l-2.489-10.072l3.055-0.756l1.565,6.332l3.765-0.931l-1.462-5.916l3.032-0.749l1.462,5.916
			l6.625-1.637l0.923,3.74L25.195,142.63z"/>
		<path fill="#FFFFFF" d="M29.779,103.163c5.563,0.189,8.821,3.675,8.652,8.634c-0.17,5.033-4.069,7.85-8.903,7.686
			c-5.083-0.172-8.774-3.548-8.604-8.557C21.101,105.717,25.099,103.005,29.779,103.163z M29.591,115.429
			c3.322,0.112,5.715-1.369,5.803-3.937c0.087-2.592-2.328-4.161-5.625-4.272c-3.046-0.104-5.712,1.268-5.801,3.911
			C23.878,113.723,26.293,115.316,29.591,115.429z"/>
		<path fill="#FFFFFF" d="M37.29,76.98c5.246,1.861,7.298,6.171,5.639,10.848c-1.685,4.748-6.255,6.252-10.813,4.636
			c-4.795-1.702-7.293-6.037-5.616-10.76C28.243,76.791,32.875,75.415,37.29,76.98z M33.399,88.617
			c3.135,1.112,5.864,0.424,6.724-1.997c0.868-2.445-0.961-4.671-4.071-5.775c-2.873-1.02-5.83-0.519-6.714,1.974
			C28.47,85.264,30.292,87.514,33.399,88.617z"/>
		<path fill="#FFFFFF" d="M40.338,61.898l-2.615,3.736l-2.64-1.849l7.483-10.689l2.642,1.849l-2.659,3.796l11.268,7.888
			l-2.211,3.158L40.338,61.898z"/>
		<path fill="#FFFFFF" d="M51.729,43.563c0.645-0.8,2.113-2.223,3.583-3.449c1.798-1.501,3.046-2.247,4.463-2.477
			c1.312-0.275,2.71,0.066,3.695,1.245c0.969,1.161,1.195,2.808,0.178,4.577l0.033,0.038c1.827-0.836,3.867-0.635,5.27,1.048
			c0.984,1.18,1.217,2.56,0.953,3.895c-0.316,1.545-1.548,3.294-4.139,5.456c-1.45,1.21-2.614,2.018-3.352,2.47L51.729,43.563z
			 M58.812,46.116l0.967-0.808c1.546-1.291,1.846-2.623,1.04-3.589c-0.824-0.987-2.013-0.879-3.347,0.234
			c-0.64,0.532-0.974,0.877-1.192,1.127L58.812,46.116z M63.636,51.897c0.323-0.204,0.671-0.495,1.173-0.914
			c1.334-1.113,2.094-2.6,0.949-3.974c-1.097-1.315-2.712-0.853-4.182,0.374l-1.006,0.838L63.636,51.897z"/>
		<path fill="#FFFFFF" d="M81.799,37.922l0.658,4.473l-3.639,1.612l-2.13-17.623l4.606-2.04l11.687,13.389l-3.776,1.674
			l-2.963-3.454L81.799,37.922z M84.575,33.552l-2.426-2.865c-0.684-0.798-1.47-1.828-2.11-2.646l-0.045,0.021
			c0.178,1.023,0.468,2.3,0.611,3.31l0.539,3.701L84.575,33.552z"/>
		<path fill="#FFFFFF" d="M99.139,18.797l3.809-0.585l2.093,13.591l6.67-1.027l0.491,3.187l-10.479,1.612L99.139,18.797z"/>
		<path fill="#FFFFFF" d="M122.82,16.906l3.839,0.352l-1.256,13.694l6.722,0.616l-0.295,3.21l-10.559-0.967L122.82,16.906z"/>
	</g>
	<g>
		<path fill="#FFFFFF" d="M111.049,195.357l3.851,0.135l-0.484,13.742l6.746,0.235l-0.114,3.222l-10.595-0.373L111.049,195.357z"/>
		<path fill="#FFFFFF" d="M142.105,202.457l-6.117,1.268l0.817,3.946l6.832-1.417l0.638,3.083l-10.604,2.197l-3.443-16.623
			l10.26-2.125l0.638,3.083l-6.486,1.344l0.716,3.453l6.117-1.267L142.105,202.457z"/>
		<path fill="#FFFFFF" d="M158.427,199.396l0.883,4.435l-3.555,1.792l-3.008-17.495l4.498-2.269l12.343,12.79l-3.688,1.86
			l-3.131-3.302L158.427,199.396z M160.98,194.893l-2.566-2.74c-0.723-0.765-1.559-1.752-2.237-2.538l-0.046,0.023
			c0.229,1.013,0.582,2.271,0.777,3.273l0.721,3.672L160.98,194.893z"/>
		<path fill="#FFFFFF" d="M189.721,181.341c-0.604,1.097-1.885,3.017-3.54,4.53c-2.288,2.087-4.469,3.023-6.641,2.961
			c-2.14-0.024-4.267-1.086-5.93-2.942c-3.785-4.184-2.929-9.333,1.181-13.087c1.618-1.478,3.154-2.3,4.039-2.563l1.478,2.813
			c-0.96,0.33-2.036,0.87-3.413,2.126c-2.362,2.158-2.924,5.128-0.444,7.843c2.362,2.587,5.372,2.634,7.697,0.509
			c0.65-0.593,1.104-1.143,1.225-1.457l-2.395-2.625l-1.934,1.767l-2.022-2.213l4.669-4.263L189.721,181.341z"/>
		<path fill="#FFFFFF" d="M186.523,159.053l8.364,5.056c2.499,1.511,4.344,1.331,5.361-0.35c1.042-1.725,0.408-3.403-2.156-4.953
			l-8.364-5.055l1.98-3.276l8.148,4.925c4.482,2.71,5.249,6.263,2.955,10.056c-2.214,3.664-5.544,4.595-10.179,1.794l-8.103-4.898
			L186.523,159.053z"/>
		<path fill="#FFFFFF" d="M207.475,134.622l-1.715,6.005l3.875,1.106l1.914-6.707l3.027,0.863l-2.973,10.413l-16.321-4.659
			l2.876-10.074l3.026,0.864l-1.817,6.369l3.391,0.968l1.713-6.006L207.475,134.622z"/>
	</g>
</g>
</svg>
