<?xml version="1.0" encoding="utf-8"?>
<!-- Generator: Adobe Illustrator 16.0.3, SVG Export Plug-In . SVG Version: 6.00 Build 0)  -->
<!DOCTYPE svg PUBLIC "-//W3C//DTD SVG 1.1//EN" "http://www.w3.org/Graphics/SVG/1.1/DTD/svg11.dtd">
<svg version="1.1" id="Capa_1" xmlns="http://www.w3.org/2000/svg" xmlns:xlink="http://www.w3.org/1999/xlink" x="0px" y="0px"
	 width="228px" height="228px" viewBox="0 0 228 228" enable-background="new 0 0 228 228" xml:space="preserve">
<ellipse fill="#FFFFFF" cx="113.732" cy="80.604" rx="44.083" ry="49.411"/>
<g>
	<g>
		<path fill="#12214F" d="M165.784,27.888h-14.119v-6.82L113.732,5.415L75.801,21.068v6.82H61.683
			c-0.028,9.892-7.2,17.903-16.045,17.903v102.022c0,23.591,12.165,45.063,31.231,55.121l36.863,19.448l36.865-19.448
			c19.064-10.059,31.229-31.53,31.229-55.121V45.791C172.984,45.791,165.811,37.78,165.784,27.888z M113.732,130.031
			c-24.348,0-44.157-22.172-44.157-49.423c0-27.253,19.81-49.425,44.157-49.425c24.35,0,44.159,22.172,44.159,49.425
			C157.892,107.859,138.082,130.031,113.732,130.031z"/>
		<path fill="#12214F" d="M113.732,3.598l39.457,16.28v6.304h14.113l0.005,1.7c0.023,8.934,6.539,16.203,14.52,16.203h1.523v103.729
			c0,24.131-12.602,46.373-32.104,56.662l-37.515,19.791l-37.514-19.791c-19.503-10.289-32.105-32.531-32.105-56.662V44.085h1.524
			c7.981,0,14.496-7.269,14.521-16.203l0.005-1.7h14.113v-6.304L113.732,3.598L113.732,3.598z M113.732-0.037l-1.053,0.435
			L73.223,16.679l-1.992,0.822v2.377v2.894H60.164h-3.038l-0.009,3.4l-0.005,1.7c-0.02,7.061-5.167,12.803-11.475,12.803h-1.524
			h-3.046v3.411v103.729c0,25.444,13.288,48.896,33.853,59.749l37.514,19.789l1.299,0.685l1.3-0.685l37.515-19.789
			c20.563-10.853,33.852-34.305,33.852-59.749V44.085v-3.411h-3.048h-1.523c-6.307,0-11.453-5.742-11.473-12.803l-0.007-1.7
			l-0.007-3.4h-3.038h-11.066v-2.894v-2.377l-1.994-0.822L114.787,0.397L113.732-0.037L113.732-0.037z"/>
		<path fill="#12214F" d="M113.732,126.62c22.669,0,41.111-20.641,41.111-46.012c0-25.373-18.442-46.014-41.111-46.014
			c-22.668,0-41.11,20.642-41.11,46.014C72.622,105.979,91.064,126.62,113.732,126.62z M152.186,80.608
			c0,9.288-2.65,17.892-7.14,24.934h-9.717c-2.245,0-4.355-1.19-5.69-3.208l-3.813-5.763c-1.361-2.059-1.75-4.727-1.042-7.163
			l2.595-8.94c0.67-2.306,2.245-4.141,4.274-4.982l5.944-2.463c2.22-0.921,4.704-0.539,6.619,1.02l7.969,6.479
			C152.186,80.55,152.186,80.579,152.186,80.608z M115.062,52.473c0-2.537,1.085-4.919,2.918-6.409l7.781-6.329
			c7.639,2.824,14.227,8.252,18.912,15.351l-2.844,9.8c-0.669,2.304-2.245,4.139-4.274,4.981l-6.341,2.628
			c-2.219,0.92-4.703,0.538-6.618-1.021l-6.616-5.379c-1.833-1.492-2.918-3.874-2.918-6.41V52.473z M117.954,95.058
			c2.243,0,4.354,1.191,5.689,3.209l3.779,5.713c1.362,2.06,1.751,4.728,1.043,7.164l-3.037,10.462
			c-3.69,1.321-7.619,2.041-11.696,2.041c-4.039,0-7.934-0.704-11.594-2.003l-3.029-10.432c-0.7-2.414-0.324-5.059,1.01-7.111
			l3.762-5.781c1.332-2.049,3.459-3.261,5.723-3.261H117.954z M101.705,39.735l7.781,6.329c1.834,1.49,2.918,3.873,2.918,6.409
			v7.213c0,2.536-1.084,4.918-2.918,6.41l-6.717,5.462c-1.9,1.546-4.363,1.935-6.572,1.04l-5.998-2.434
			c-2.052-0.831-3.646-2.677-4.32-5l-2.977-10.25C87.582,47.899,94.128,42.537,101.705,39.735z M75.284,80.837l8.085-6.574
			c1.9-1.546,4.363-1.935,6.572-1.04l5.863,2.378c2.053,0.833,3.646,2.678,4.32,5.001l2.585,8.903
			c0.701,2.414,0.326,5.059-1.009,7.111l-3.635,5.589c-1.333,2.049-3.461,3.26-5.724,3.26h-9.972
			C77.949,98.497,75.327,90.004,75.284,80.837z"/>
		<g>
			<defs>
				<path id="SVGID_1_" d="M165.784,27.888h-14.119v-6.82L113.732,5.415L75.801,21.068v6.82H61.683
					c-0.028,9.892-7.2,17.903-16.045,17.903v102.022c0,23.591,12.165,45.063,31.231,55.121l36.863,19.448l36.865-19.448
					c19.064-10.059,31.229-31.53,31.229-55.121V45.791C172.984,45.791,165.811,37.78,165.784,27.888z M113.732,130.031
					c-24.348,0-44.157-22.172-44.157-49.423c0-27.253,19.81-49.425,44.157-49.425c24.35,0,44.159,22.172,44.159,49.425
					C157.892,107.859,138.082,130.031,113.732,130.031z"/>
			</defs>
			<clipPath id="SVGID_2_">
				<use xlink:href="#SVGID_1_"  overflow="visible"/>
			</clipPath>
			<g clip-path="url(#SVGID_2_)">
				<rect x="45.638" y="4.314" fill="#DBA527" width="12.413" height="218.068"/>
				<rect x="70.463" y="4.314" fill="#DBA527" width="12.413" height="218.068"/>
				<rect x="95.289" y="4.314" fill="#DBA527" width="12.412" height="218.068"/>
				<rect x="119.765" y="4.314" fill="#DBA527" width="12.412" height="218.068"/>
				<rect x="144.59" y="2.083" fill="#DBA527" width="12.413" height="218.069"/>
				<rect x="169.416" y="1.971" fill="#DBA527" width="12.411" height="218.069"/>
			</g>
		</g>
	</g>
	<polygon fill="#12214F" points="44.113,152.111 9.59,152.111 0.084,116.997 44.113,116.997 	"/>
	<polygon fill="#12214F" points="218.411,152.111 183.351,152.111 183.351,116.997 227.916,116.997 	"/>
	<path fill="#FFFFFF" d="M205.405,136.416v35.113H22.172v-35.113H205.405L205.405,136.416z M207.781,133.755h-2.376H22.172h-2.377
		v2.661v35.113v2.661h2.377h183.233h2.376v-2.661v-35.113V133.755L207.781,133.755z"/>
	<rect x="22.172" y="136.416" fill="#12214F" width="183.233" height="35.113"/>
	<g>
		<path fill="#FFFFFF" d="M31.98,143.193h14.557v4.581h-8.643v3.725h7.382v4.305h-7.382v8.713H31.98V143.193z"/>
		<path fill="#FFFFFF" d="M50.298,153.87c0-3.482,0.866-6.192,2.599-8.133c1.733-1.939,4.146-2.909,7.239-2.909
			c3.171,0,5.614,0.952,7.331,2.858c1.715,1.906,2.572,4.575,2.572,8.007c0,2.493-0.375,4.537-1.124,6.133
			c-0.749,1.595-1.832,2.836-3.249,3.723c-1.416,0.888-3.182,1.332-5.297,1.332c-2.148,0-3.926-0.384-5.334-1.149
			s-2.55-1.979-3.425-3.637C50.734,158.436,50.298,156.36,50.298,153.87z M56.186,153.897c0,2.153,0.356,3.699,1.072,4.641
			c0.715,0.94,1.688,1.411,2.918,1.411c1.264,0,2.243-0.461,2.936-1.382c0.693-0.921,1.04-2.574,1.04-4.961
			c0-2.007-0.362-3.474-1.085-4.4c-0.724-0.925-1.705-1.388-2.943-1.388c-1.188,0-2.141,0.471-2.859,1.41
			C56.545,150.169,56.186,151.727,56.186,153.897z"/>
		<path fill="#FFFFFF" d="M73.801,153.87c0-3.482,0.865-6.192,2.599-8.133c1.733-1.939,4.146-2.909,7.239-2.909
			c3.17,0,5.614,0.952,7.33,2.858c1.715,1.906,2.572,4.575,2.572,8.007c0,2.493-0.374,4.537-1.124,6.133
			c-0.749,1.595-1.831,2.836-3.249,3.723c-1.416,0.888-3.182,1.332-5.295,1.332c-2.149,0-3.928-0.384-5.336-1.149
			c-1.407-0.766-2.549-1.979-3.424-3.637C74.238,158.436,73.801,156.36,73.801,153.87z M79.688,153.897
			c0,2.153,0.357,3.699,1.072,4.641c0.715,0.94,1.688,1.411,2.918,1.411c1.265,0,2.244-0.461,2.938-1.382
			c0.692-0.921,1.039-2.574,1.039-4.961c0-2.007-0.361-3.474-1.085-4.4c-0.724-0.925-1.704-1.388-2.944-1.388
			c-1.187,0-2.14,0.471-2.859,1.41C80.047,150.169,79.688,151.727,79.688,153.897z"/>
		<path fill="#FFFFFF" d="M96.016,143.193h17.896v5.265h-6.004v16.059h-5.888v-16.059h-6.005V143.193z"/>
		<path fill="#FFFFFF" d="M117.919,143.193h11.021c1.837,0,3.248,0.509,4.231,1.527c0.983,1.017,1.474,2.276,1.474,3.781
			c0,1.261-0.35,2.342-1.052,3.243c-0.468,0.601-1.152,1.075-2.053,1.426c1.368,0.368,2.375,1.001,3.021,1.897
			c0.645,0.897,0.967,2.024,0.967,3.383c0,1.104-0.229,2.1-0.688,2.981c-0.46,0.883-1.088,1.581-1.885,2.094
			c-0.494,0.321-1.239,0.554-2.235,0.699c-1.325,0.193-2.205,0.291-2.639,0.291h-10.164V143.193z M123.858,151.555h2.562
			c0.918,0,1.557-0.177,1.916-0.53c0.361-0.354,0.54-0.865,0.54-1.534c0-0.62-0.179-1.105-0.54-1.454
			c-0.359-0.35-0.984-0.524-1.877-0.524h-2.601V151.555z M123.858,159.935h3.003c1.014,0,1.729-0.2,2.145-0.604
			c0.416-0.402,0.625-0.942,0.625-1.621c0-0.631-0.207-1.137-0.618-1.521c-0.411-0.382-1.133-0.573-2.164-0.573h-2.99V159.935z"/>
		<path fill="#FFFFFF" d="M151.199,160.997h-6.684l-0.93,3.52h-6.01l7.161-21.323h6.422l7.159,21.323h-6.166L151.199,160.997z
			 M149.979,156.385l-2.104-7.665l-2.08,7.665H149.979z"/>
		<path fill="#FFFFFF" d="M161.521,143.193h5.887v16.071h9.187v5.252h-15.073V143.193z"/>
		<path fill="#FFFFFF" d="M180.604,143.193h5.887v16.071h9.188v5.252h-15.074V143.193z"/>
	</g>
	<path fill="#FFFFFF" d="M113.912,178.18H73.811c-6.533,0-8.732,9.771-2.979,13.234l40.346,24.298c1.707,1.027,3.762,1.027,5.469,0
		l40.345-24.298c5.755-3.464,3.556-13.234-2.979-13.234H113.912z"/>
	<g>
		<path fill="#12214F" d="M94.453,194.014l2.699,0.958c-0.413,1.686-1.102,2.936-2.064,3.753c-0.963,0.818-2.184,1.227-3.663,1.227
			c-1.831,0-3.336-0.7-4.515-2.101c-1.179-1.399-1.769-3.313-1.769-5.742c0-2.567,0.593-4.563,1.778-5.985
			c1.186-1.42,2.742-2.131,4.674-2.131c1.688,0,3.057,0.559,4.11,1.675c0.628,0.659,1.097,1.605,1.411,2.841l-2.756,0.737
			c-0.164-0.799-0.504-1.432-1.021-1.896c-0.518-0.463-1.146-0.694-1.886-0.694c-1.022,0-1.852,0.41-2.488,1.232
			c-0.637,0.82-0.954,2.152-0.954,3.989c0,1.951,0.313,3.341,0.94,4.168c0.627,0.829,1.441,1.243,2.445,1.243
			c0.74,0,1.377-0.264,1.909-0.79C93.839,195.972,94.222,195.145,94.453,194.014z"/>
		<path fill="#12214F" d="M100.58,199.688v-15.307h2.783v12.708h6.922v2.599H100.58z"/>
		<path fill="#12214F" d="M113.215,184.257h2.784v8.357c0,1.326,0.035,2.187,0.103,2.58c0.12,0.63,0.404,1.137,0.852,1.52
			c0.448,0.384,1.062,0.574,1.839,0.574c0.789,0,1.387-0.18,1.788-0.543c0.401-0.36,0.643-0.804,0.724-1.33s0.121-1.401,0.121-2.621
			v-8.537h2.785v8.105c0,1.853-0.074,3.16-0.225,3.926c-0.151,0.765-0.43,1.41-0.834,1.937c-0.403,0.526-0.945,0.946-1.621,1.258
			c-0.679,0.313-1.562,0.469-2.653,0.469c-1.315,0-2.315-0.17-2.994-0.511c-0.682-0.34-1.219-0.782-1.614-1.326
			s-0.656-1.113-0.78-1.711c-0.183-0.884-0.273-2.188-0.273-3.915V184.257z"/>
		<path fill="#12214F" d="M128.117,184.257h5.512c1.091,0,1.904,0.049,2.44,0.15c0.535,0.104,1.016,0.314,1.439,0.638
			c0.423,0.323,0.775,0.752,1.059,1.289c0.281,0.538,0.423,1.14,0.423,1.807c0,0.723-0.175,1.385-0.523,1.989
			c-0.348,0.603-0.819,1.056-1.414,1.358c0.839,0.272,1.485,0.74,1.938,1.4c0.451,0.659,0.677,1.434,0.677,2.325
			c0,0.702-0.146,1.385-0.438,2.047c-0.291,0.663-0.688,1.194-1.194,1.591c-0.504,0.396-1.127,0.64-1.867,0.731
			c-0.463,0.056-1.583,0.092-3.356,0.105h-4.693V184.257z M130.901,186.823v3.57h1.824c1.084,0,1.759-0.018,2.022-0.052
			c0.476-0.064,0.851-0.249,1.123-0.554c0.274-0.305,0.409-0.707,0.409-1.205c0-0.478-0.118-0.865-0.352-1.163
			c-0.237-0.299-0.586-0.479-1.049-0.542c-0.277-0.036-1.07-0.055-2.38-0.055H130.901z M130.901,192.963v4.127h2.577
			c1.003,0,1.641-0.033,1.909-0.098c0.414-0.082,0.751-0.288,1.011-0.614c0.261-0.326,0.39-0.765,0.39-1.312
			c0-0.464-0.101-0.855-0.3-1.179c-0.202-0.321-0.491-0.559-0.87-0.706c-0.38-0.146-1.203-0.219-2.47-0.219H130.901z"/>
	</g>
	<path fill="#12214F" d="M98.93,206.11h31.132l-13.955,7.757c-1.376,0.765-2.999,0.737-4.355-0.075L98.93,206.11z"/>
</g>
</svg>
