<?xml version="1.0" encoding="utf-8"?>
<!-- Generator: Adobe Illustrator 25.2.1, SVG Export Plug-In . SVG Version: 6.00 Build 0)  -->
<svg version="1.1" id="Capa_1" xmlns="http://www.w3.org/2000/svg" xmlns:xlink="http://www.w3.org/1999/xlink" x="0px" y="0px"
	 viewBox="0 0 228 228" style="enable-background:new 0 0 228 228;" xml:space="preserve">
<style type="text/css">
	.st0{fill:#FEE252;}
	.st1{fill:#FED2B2;}
	.st2{fill:#FBB88B;}
	.st3{fill:#FBB98B;}
</style>
<g>
	<path class="st0" d="M68.55,147.43c-3.85-0.01-7.71-0.12-11.56,0c-1.72,0.05-2.25-0.4-2.24-2.2c0.09-10.75,0.04-21.5,0.04-32.25
		c0-35.14,0.02-70.29-0.05-105.43c0-2.18,0.57-2.66,2.69-2.65c30.92,0.07,61.83,0.07,92.75,0.01c1.98,0,2.6,0.43,2.59,2.52
		c-0.08,18.61-0.03,37.22-0.02,55.83c-0.01,0.81-0.03,1.63-0.03,2.44c0,26.36-0.03,52.72,0.05,79.08c0.01,2.19-0.62,2.7-2.73,2.66
		c-7.11-0.11-14.21-0.01-21.32,0.01c-2.38-0.03-4.76-0.06-7.13-0.08c-0.01-15.12,0.15-30.25-0.09-45.37
		c-0.15-9.99-7.72-17.45-17.38-17.79C94,83.84,85.79,92.73,85.9,101.99c0.18,15.12,0.03,30.24,0.02,45.37
		C80.13,147.38,74.34,147.41,68.55,147.43z"/>
	<path class="st1" d="M128.72,147.45c7.11-0.02,14.22-0.12,21.32-0.01c2.1,0.03,2.73-0.47,2.73-2.66
		c-0.08-26.36-0.05-52.72-0.05-79.08c0-0.81,0.02-1.63,0.03-2.44c2.74,5.08,5.5,10.15,8.23,15.23c3.5,6.53,6.88,13.12,10.48,19.59
		c3.57,6.42,5.33,13.24,5.3,20.58c-0.04,11.13-0.26,22.26,0.07,33.38c0.27,9.29-1.62,17.97-5.15,26.51
		c-4.45,10.79-8.5,21.76-12.72,32.65c-1.44,3.72-2.93,7.42-4.28,11.17c-0.42,1.17-0.99,1.61-2.24,1.61
		c-25.14-0.05-50.29-0.06-75.43-0.07c-2.3-8.76-4.41-17.57-6.95-26.25c-2.51-8.62-1.79-16.78,2.62-24.53
		c2.81-4.93,6.06-9.61,8.87-14.54c1.99-3.49,5.27-6.56,4.36-11.2c0.01-15.12,0.15-30.25-0.02-45.37
		c-0.11-9.26,8.1-18.16,18.22-17.79c9.66,0.35,17.22,7.8,17.38,17.79c0.23,15.12,0.08,30.24,0.09,45.37c0,3.29,0,6.59,0,9.88
		C124.19,154.03,126.98,151.11,128.72,147.45z"/>
	<path class="st2" d="M85.92,147.36c0.91,4.65-2.37,7.71-4.36,11.2c-2.81,4.93-6.06,9.61-8.87,14.54
		c-4.41,7.75-5.14,15.91-2.62,24.53c2.53,8.69,4.65,17.5,6.95,26.25c-5.26,0.02-10.52,0.03-15.77,0.06
		c-1.03,0.01-1.71-0.1-2.04-1.42c-2.53-9.94-5.58-19.76-7.58-29.83c-1.43-7.19,0.26-13.89,4.01-20.11
		c4.04-6.69,8.02-13.42,12.19-20.04c1.09-1.73,0.58-3.41,0.73-5.13C74.34,147.41,80.13,147.38,85.92,147.36z"/>
	<path class="st3" d="M128.72,147.45c-1.74,3.66-4.53,6.58-7.13,9.79c0-3.29,0-6.59,0-9.88
		C123.97,147.39,126.34,147.42,128.72,147.45z"/>
</g>
</svg>
