<?xml version="1.0" encoding="utf-8"?>
<!-- Generator: Adobe Illustrator 25.2.1, SVG Export Plug-In . SVG Version: 6.00 Build 0)  -->
<svg version="1.1" id="Capa_1" xmlns="http://www.w3.org/2000/svg" xmlns:xlink="http://www.w3.org/1999/xlink" x="0px" y="0px"
	 viewBox="0 0 228 228" style="enable-background:new 0 0 228 228;" xml:space="preserve">
<style type="text/css">
	.st0{fill:#004B74;}
	.st1{fill:#013959;}
	.st2{fill:#DCA678;}
	.st3{fill:#F8BA8C;}
</style>
<g>
	<g>
		<g>
			<path class="st0" d="M181.18,177.75c-7.65-8.93-68.24-28.54-68.24-28.54S53.62,170.9,44.7,177.75
				c-8.93,6.86-12.28,50.17-12.28,50.17H191.7C191.7,227.92,188.83,186.69,181.18,177.75z"/>
			<path class="st1" d="M140.52,161.75l-27.58,10.52l-27.59-10.52v-14.07c0,0,12.57-4.43,28.26-4.43c15.68,0,26.91,4.43,26.91,4.43
				V161.75z"/>
			<polygon class="st2" points="136.37,148.83 112.94,159.36 89.5,148.83 89.5,130.34 136.37,130.34 			"/>
			<path d="M160.19,94.04V68.61c0-35.64-14.29-59.54-46.58-59.54c-32.31,0-46.58,23.9-46.58,59.54v25.44c0,0,7.11-5.88,13.61-13.23
				c2.93-3.32-7.06-21.58-4.02-29.25c3.7-9.31,13.15-15.93,13.15-15.93s3.92,4.53,21.28,6.13c17.79,1.63,23.98-8.17,23.98-8.17
				s1.51,40.69,5.48,46.04C149.05,91.08,160.19,94.04,160.19,94.04z"/>
			<path class="st3" d="M162.52,83.36c0,7.93-5.62,18.82-9.41,18.82c-3.79,0-6.86-6.42-6.86-14.35c0-7.92,3.88-12.01,6.86-14.35
				C156.78,70.61,162.52,73.48,162.52,83.36z"/>
			<path class="st3" d="M64.38,83.36c0,7.93,5.62,18.82,9.41,18.82s6.86-6.42,6.86-14.35c0-7.92-3.87-12.01-6.86-14.35
				C70.12,70.61,64.38,73.48,64.38,83.36z"/>
			<path class="st3" d="M113.61,20.54c-26.62,0-38.39,18.65-38.39,46.47c0,14.18,0,25.25,0,34.84c0,5.09,1.87,18.28,3.82,22.32
				c6.31,13,24.98,27.42,33.82,27.42c8.84,0,29.86-14.26,34.83-26.62c1.92-4.77,4.31-19.38,4.31-25.35c0-9.07,0-19.52,0-32.61
				C152,39.2,140.23,20.54,113.61,20.54z"/>
			<path d="M152,86.87l2.39-14.45c1.69-32.85-14.16-57.11-40.78-57.11c-26.62,0-41.11,27.78-40.08,57.11l1.69,14.45
				c0,0,0.06-10.85,5.42-16.58c2.42-2.6-0.03-10.59,2.48-16.58c3.05-7.27,10.85-12.43,10.85-12.43s3.24,3.54,17.54,4.78
				c14.67,1.28,19.77-6.37,19.77-6.37s8.75,0.66,13.55,11.88c3.11,7.25,0.72,10.6,0.48,15.15C145.07,71.24,152,86.87,152,86.87z"/>
		</g>
	</g>
</g>
</svg>
