<?xml version="1.0" encoding="utf-8"?>
<!-- Generator: Adobe Illustrator 25.2.1, SVG Export Plug-In . SVG Version: 6.00 Build 0)  -->
<svg version="1.1" id="Capa_1" xmlns="http://www.w3.org/2000/svg" xmlns:xlink="http://www.w3.org/1999/xlink" x="0px" y="0px"
	 viewBox="0 0 228 228" style="enable-background:new 0 0 228 228;" xml:space="preserve">
<g>
	<path d="M228,77.02c-1.51,2.34-2.83,4.83-4.57,6.99c-5.35,6.65-10.86,13.16-16.3,19.74c-4.16,5.03-8.6,5.94-14.35,2.91
		c-1.44-0.76-2.88-1.54-4.32-2.3c-4.21-2.24-4.49-3.79-1.39-7.52c5.55-6.68,11.09-13.36,16.63-20.05c0.47-0.57,0.93-1.15,1.71-2.12
		c-7.38-7.98-14.76-15.96-22.14-23.95c-0.28,0.1-0.56,0.21-0.83,0.31c-0.54,2.17-1.34,4.31-1.59,6.52
		c-0.86,7.87-2.14,15.77-2.18,23.66c-0.22,41.64-0.16,83.27-0.02,124.91c0.01,4.4-1.85,7.12-5.61,8.27
		c-6.07,1.85-12.24,3.61-18.49,4.6c-20.52,3.26-41.19,3.92-61.91,2.25c-11.75-0.95-23.49-2.14-34.82-5.69
		c-1.2-0.38-2.37-0.85-3.51-1.38c-3.31-1.55-5.01-3.89-4.95-7.85c0.2-12.69,0.05-25.38,0.11-38.07c0-1.05,0.16-2.44,0.82-3.07
		c0.78-0.75,2.31-1.34,3.28-1.09c0.98,0.25,1.8,1.53,2.42,2.53c0.34,0.55,0.12,1.45,0.12,2.19c0,12.25,0.04,24.49-0.04,36.74
		c-0.01,1.72,0.52,2.71,2.11,3.07c6.27,1.44,12.49,3.23,18.84,4.18c16.7,2.5,33.52,3.22,50.39,2.29c12.67-0.71,25.3-1.82,37.66-4.92
		c6.86-1.72,6.84-1.77,6.84-8.71c0-39.04,0.04-78.08-0.02-117.12c-0.02-12.3,0.87-24.45,4.5-36.28c0.06-0.2,0.04-0.42,0.07-0.98
		c-4.17-1.13-8.37-2.25-12.56-3.42c-5.85-1.63-11.68-3.33-17.54-4.91c-0.7-0.19-1.76-0.01-2.31,0.42
		c-8.54,6.75-17.91,12.13-27.5,17.19c-1.74,0.92-3.32,0.99-5.04,0.01c-2.77-1.58-5.62-3.02-8.39-4.58
		c-2.09-1.18-2.76-3.06-1.82-4.79c0.94-1.74,2.88-2.15,5.03-1.01c2.16,1.15,4.26,2.42,6.46,3.47c0.67,0.32,1.77,0.36,2.41,0.02
		c9.19-4.86,18.21-9.99,26.11-16.84c2.34-2.03,4.59-4.17,5.81-7.3c-1.72-0.9-3.27-1.71-4.88-2.56c-7.52,7.09-16.53,11.95-25.43,17
		c-1.97,1.11-3.66,1.18-5.6-0.01c-5.69-3.49-11.5-6.77-17.12-10.36c-2.92-1.87-5.53-4.21-8.49-6.51c-1.33,0.68-2.94,1.51-4.99,2.57
		c1.31,1.74,2.29,3.52,3.71,4.81c3.01,2.74,6.22,5.27,9.4,7.81c2.06,1.64,2.61,3.44,1.39,5.11c-1.22,1.68-3.16,1.82-5.29,0.29
		c-1.99-1.43-3.89-2.97-5.9-4.37c-0.52-0.36-1.35-0.65-1.91-0.5c-8.87,2.39-17.71,4.86-26.56,7.33c-1.28,0.36-2.53,0.82-3.89,1.27
		c0.82,3.53,1.89,6.93,2.35,10.41c0.91,6.9,2.01,13.84,2.08,20.77c0.25,24.79,0.11,49.58,0.11,74.37c0,3.24-1.94,5.09-4.38,4.2
		c-1.93-0.71-2.3-2.26-2.3-4.12c0.02-17,0.01-33.99,0.01-50.99c0-0.79,0-1.57,0-2.68c-4.89,2.57-9.46,4.98-14.03,7.39
		c-6.06,3.19-10.29,2.33-14.68-2.97C15.34,97.06,9.87,90.6,4.57,84.01C2.83,81.85,1.51,79.36,0,77.02c0-1.34,0-2.67,0-4.01
		c0.83-1.56,1.38-3.36,2.53-4.63c8.78-9.75,17.61-19.44,26.56-29.04c6.19-6.64,13.91-10.55,22.73-12.73
		c8.76-2.16,17.41-4.77,26.02-7.5c2.45-0.78,4.96-2.27,6.71-4.12c3.3-3.48,7.12-5.79,11.65-6.98c10.27-2.72,20.67-2.73,31.1-1.03
		c5.56,0.91,10.96,2.48,14.87,6.81c2.49,2.76,5.41,4.67,8.84,5.71c7.36,2.24,14.73,4.52,22.21,6.27
		c10.28,2.41,19.48,6.55,26.72,14.46c7.91,8.64,15.92,17.19,23.72,25.92c1.78,1.99,2.92,4.56,4.36,6.86
		C228,74.35,228,75.69,228,77.02z M40.5,96.33c2.71-1.44,5.24-2.67,7.64-4.12c0.64-0.39,1.26-1.45,1.24-2.18
		c-0.2-8.07-0.28-16.17-0.92-24.21c-0.4-4.96-1.71-9.84-2.71-15.34c-8.79,7.79-15.95,16.02-22.94,24.5
		C28.73,82.14,34.55,89.16,40.5,96.33z M90.65,18.46c0.8,0.62,1.47,1.22,2.21,1.7c6.71,4.34,13.43,8.67,20.19,12.93
		c0.48,0.3,1.49,0.25,2-0.06c6.07-3.7,12.11-7.44,18.09-11.28c1.46-0.94,2.67-2.28,3.98-3.42C131.06,10.79,97.85,10.52,90.65,18.46z
		 M150.53,32.99c0.52,0.19,0.92,0.37,1.33,0.48c6.01,1.61,12,3.25,18.02,4.82c6.77,1.76,13.48,3.62,18.64,8.82
		c1.83,1.84,3.83,3.52,5.59,5.42c5.2,5.59,10.32,11.25,15.6,17.02c1.31-1.58,2.66-3.2,4.22-5.09c-5.96-6.23-11.88-12.25-17.62-18.45
		c-6.56-7.09-14.42-11.73-23.95-13.5c-0.36-0.07-0.72-0.18-1.08-0.28c-5.93-1.54-11.85-3.07-17.72-4.59
		C152.56,29.42,151.61,31.08,150.53,32.99z M74.4,27.58c-8.21,2.19-16.28,4.35-24.36,6.51c-4.72,1.26-9.14,3.2-12.61,6.71
		c-7.62,7.69-15.11,15.49-22.65,23.26c-0.19,0.19-0.27,0.49-0.42,0.76c1.37,1.62,2.69,3.19,3.95,4.69
		c5.5-5.99,10.88-11.81,16.21-17.67c6.16-6.76,13.4-11.62,22.57-13.25c1.6-0.29,3.16-0.79,4.73-1.21c5.2-1.38,10.4-2.77,15.74-4.19
		C76.42,31.15,75.45,29.43,74.4,27.58z M9.88,69.83c-0.86,1.05-1.51,1.84-2.17,2.63c-1.4,1.68-1.38,3.32,0.02,5
		c6.29,7.57,12.58,15.15,18.86,22.73c1.33,1.6,2.9,1.92,4.73,0.96c0.98-0.51,1.95-1.03,3.15-1.67C26.26,89.6,18.15,79.82,9.88,69.83
		z M218.13,69.83c-8.27,9.98-16.38,19.76-24.58,29.65c1.23,0.66,2.25,1.26,3.3,1.77c1.66,0.81,3.2,0.58,4.4-0.86
		c6.44-7.74,12.9-15.46,19.19-23.32c0.68-0.85,0.66-2.68,0.28-3.83C220.31,72.01,219.1,71.05,218.13,69.83z"/>
	<path d="M163.46,80.67c0.02,9.22-7.51,16.77-16.66,16.72c-9.09-0.05-16.54-7.51-16.59-16.61c-0.05-9.17,7.49-16.7,16.7-16.68
		C156.05,64.12,163.44,71.52,163.46,80.67z M156.8,80.81c0.03-5.6-4.38-10.04-9.98-10.03c-5.45,0-9.9,4.41-9.96,9.87
		c-0.07,5.46,4.56,10.11,10.03,10.09C152.31,90.72,156.77,86.25,156.8,80.81z"/>
</g>
</svg>
