<?xml version="1.0" encoding="utf-8"?>
<!-- Generator: Adobe Illustrator 25.2.1, SVG Export Plug-In . SVG Version: 6.00 Build 0)  -->
<svg version="1.1" id="Capa_1" xmlns="http://www.w3.org/2000/svg" xmlns:xlink="http://www.w3.org/1999/xlink" x="0px" y="0px"
	 viewBox="0 0 228 228" style="enable-background:new 0 0 228 228;" xml:space="preserve">
<g>
	<path d="M120.68,228c-4.45,0-8.91,0-13.36,0c-1.61-0.18-3.22-0.37-4.83-0.55c-24.53-2.74-46.17-12.1-64.51-28.64
		C18.5,181.25,6.35,159.5,1.77,133.62c-0.76-4.28-1.19-8.62-1.77-12.94c0-4.45,0-8.91,0-13.36c0.18-1.6,0.37-3.2,0.55-4.81
		c2.73-24.53,12.09-46.17,28.63-64.52C46.73,18.51,68.49,6.36,94.36,1.77C98.65,1.01,103,0.58,107.32,0c4.45,0,8.91,0,13.36,0
		c1.61,0.18,3.22,0.37,4.83,0.55c24.53,2.74,46.17,12.1,64.51,28.64c19.48,17.56,31.63,39.31,36.21,65.19
		c0.76,4.28,1.19,8.62,1.77,12.94c0,4.45,0,8.91,0,13.36c-0.18,1.6-0.37,3.2-0.55,4.81c-2.73,24.53-12.09,46.17-28.63,64.52
		c-17.56,19.48-39.31,31.64-65.19,36.22C129.35,226.99,125,227.42,120.68,228z M181.55,174.11c5.56,0,11.13,0.05,16.69-0.05
		c0.79-0.01,1.86-0.53,2.29-1.16c11.34-16.64,17.37-35.05,18.16-55.18c0.05-1.32-0.29-2.15-1.39-2.95
		c-8.9-6.41-17.77-12.87-26.61-19.37c-1.06-0.78-1.95-0.96-3.23-0.54c-11.11,3.66-22.24,7.26-33.38,10.83
		c-1.25,0.4-1.92,1.01-2.33,2.31c-3.5,11-7.07,21.99-10.71,32.95c-0.46,1.39-0.22,2.33,0.6,3.44c6.88,9.39,13.73,18.8,20.53,28.25
		c0.85,1.18,1.76,1.52,3.14,1.5C170.72,174.07,176.14,174.11,181.55,174.11z M46.51,174.11c5.49,0,10.98,0.06,16.46-0.06
		c0.92-0.02,2.14-0.61,2.68-1.34c7.01-9.48,13.94-19.01,20.8-28.6c0.53-0.74,0.74-2.1,0.47-2.97c-3.5-11.08-7.16-22.12-10.68-33.19
		c-0.42-1.33-1.16-1.88-2.37-2.27c-11.06-3.56-22.12-7.14-33.16-10.77c-1.32-0.44-2.28-0.32-3.44,0.53
		c-8.77,6.47-17.59,12.87-26.43,19.24c-1.16,0.83-1.59,1.67-1.53,3.11c0.8,20.13,6.86,38.53,18.2,55.17
		c0.43,0.62,1.52,1.1,2.32,1.11C35.38,174.15,40.95,174.11,46.51,174.11z M109.47,55.85c0-5.86,0.06-11.72-0.06-17.58
		c-0.02-0.93-0.58-2.18-1.31-2.72c-8.93-6.63-17.92-13.18-26.95-19.67c-0.63-0.45-1.83-0.62-2.56-0.36
		c-19.11,6.9-34.87,18.45-47.34,34.47c-0.47,0.61-0.65,1.8-0.42,2.54c3.38,10.58,6.83,21.14,10.37,31.67
		c0.27,0.8,1.21,1.67,2.03,1.95c11.25,3.72,22.52,7.37,33.82,10.94c0.81,0.26,2.08,0.06,2.77-0.43
		c9.47-6.78,18.89-13.62,28.25-20.53c0.73-0.54,1.32-1.77,1.34-2.69C109.53,67.57,109.47,61.71,109.47,55.85z M118.53,55.8
		c0,5.79,0.04,11.57-0.03,17.36c-0.02,1.38,0.32,2.28,1.51,3.14c9.4,6.74,18.73,13.59,28.13,20.32c0.69,0.5,1.95,0.72,2.76,0.47
		c11.3-3.57,22.57-7.21,33.82-10.94c0.87-0.29,1.85-1.26,2.14-2.12c3.52-10.46,6.95-20.95,10.29-31.46
		c0.25-0.79,0.01-2.06-0.51-2.72c-12.4-15.87-28.03-27.35-46.98-34.23c-0.84-0.31-2.22-0.14-2.95,0.38
		c-8.98,6.43-17.91,12.94-26.79,19.53c-0.73,0.54-1.32,1.78-1.34,2.7C118.47,44.07,118.53,49.94,118.53,55.8z M114.19,148.07
		c-5.79,0-11.57-0.07-17.36,0.06c-0.99,0.02-2.32,0.63-2.89,1.41c-7.06,9.53-14.02,19.14-20.94,28.77
		c-0.46,0.64-0.63,1.81-0.39,2.56c3.37,10.66,6.82,21.3,10.35,31.9c0.26,0.78,1.23,1.64,2.04,1.88c19.28,5.56,38.59,5.59,57.87,0.03
		c0.87-0.25,1.92-1.15,2.2-1.98c3.52-10.53,6.94-21.1,10.29-31.69c0.26-0.81,0.09-2.08-0.4-2.76c-6.91-9.64-13.88-19.24-20.93-28.78
		c-0.54-0.73-1.78-1.32-2.71-1.34C125.61,148.01,119.9,148.07,114.19,148.07z"/>
</g>
</svg>
