<?xml version="1.0" encoding="utf-8"?>
<!-- Generator: Adobe Illustrator 25.2.1, SVG Export Plug-In . SVG Version: 6.00 Build 0)  -->
<svg version="1.1" id="Capa_1" xmlns="http://www.w3.org/2000/svg" xmlns:xlink="http://www.w3.org/1999/xlink" x="0px" y="0px"
	 viewBox="0 0 228 228" style="enable-background:new 0 0 228 228;" xml:space="preserve">
<style type="text/css">
	.st0{fill:#EA7B1F;}
	.st1{fill:#929292;}
</style>
<g>
	<path d="M76.57,0c17.06,2.32,30.63,22.35,30.8,42.28c0.08,8.59-2.04,16.75-3.76,25c-2.7,12.98-5.58,25.93-8.31,38.91
		c-0.39,1.87-1.3,2.98-3.01,3.77c-11.63,5.39-23.23,10.84-34.85,16.26c-3.3,1.54-4.53,0.98-5.49-2.49
		c-3.64-13.06-7.65-26.03-10.82-39.2c-4.29-17.88-6.23-36-1.48-54.16c2.81-10.71,7.95-20.09,17.86-25.82
		c3.63-2.1,7.92-3.07,11.91-4.55C71.82,0,74.19,0,76.57,0z M56.77,120.32c0.86-0.36,1.53-0.63,2.18-0.93
		c9.6-4.49,19.18-9.01,28.81-13.43c1.58-0.73,2.3-1.7,2.65-3.39c2.08-10.09,4.37-20.13,6.4-30.22c1.77-8.78,4.03-17.54,4.76-26.42
		c1.13-13.65-3.32-25.62-13.98-34.73c-7.93-6.77-18.14-7.47-27.08-2.09c-7.59,4.57-11.99,11.55-14.62,19.76
		c-4.23,13.17-3.68,26.61-2.05,40.1c1.32,10.95,4.67,21.41,7.55,31.98C53.14,107.35,54.94,113.75,56.77,120.32z"/>
	<path d="M147.39,228c-2.87-1.13-6-1.84-8.56-3.47c-7.41-4.71-10.57-11.75-10-20.47c0.52-7.99,1.11-15.98,1.63-23.98
		c0.23-3.59,1.82-4.62,5.12-3.15c11.5,5.13,22.98,10.3,34.5,15.39c1.99,0.88,2.83,2.14,2.63,4.31c-0.41,4.36-0.42,8.77-1.1,13.07
		c-1.48,9.4-8.09,16.01-17.42,17.9c-0.35,0.07-0.68,0.25-1.02,0.38C151.25,228,149.32,228,147.39,228z M135.77,183.21
		c-0.48,8.22-1.24,16.12-1.3,24.02c-0.06,8.16,6.78,14.69,15.09,15.15c8.18,0.46,15.5-5.49,16.57-13.59
		c0.43-3.23,0.49-6.5,0.84-9.74c0.17-1.5-0.34-2.19-1.73-2.8c-9.08-3.97-18.12-8.06-27.17-12.11
		C137.41,183.85,136.74,183.6,135.77,183.21z"/>
	<path d="M191.28,106.12c-0.52,14.75-3.24,29.05-7.43,43.12c-2.79,9.37-5.31,18.82-7.95,28.24c-0.98,3.48-2.23,4.08-5.48,2.55
		c-11.67-5.49-23.32-11.02-35.01-16.46c-1.66-0.77-2.46-1.84-2.83-3.62c-3.69-17.63-7.88-35.16-11.06-52.88
		c-2.95-16.39,0.55-31.44,12.47-43.82c14-14.56,32.18-10.65,42.66-0.29c7.59,7.51,11.3,16.95,12.97,27.25
		C190.48,95.47,190.75,100.82,191.28,106.12z M170.95,174.13c0.23-0.69,0.41-1.16,0.55-1.64c2.97-10.63,5.98-21.25,8.9-31.89
		c4.04-14.71,5.89-29.66,4.38-44.9c-0.92-9.35-3.36-18.23-9.3-25.79c-8.89-11.29-26.04-16.56-39.34-0.82
		c-8.85,10.47-11.65,22.73-9.32,35.83c3.13,17.57,7.2,34.97,10.93,52.43c0.14,0.67,0.78,1.47,1.4,1.76
		C149.65,164.13,160.18,169.06,170.95,174.13z"/>
	<path d="M98.87,149.79c0.53,12.79-6.44,21.86-17.6,24.09c-10.07,2.01-20.89-3.89-23.99-13.87c-1.49-4.79-1.41-10.06-2.04-15.11
		c-0.02-0.15-0.02-0.3-0.02-0.44c-0.21-4.62-0.21-4.63,4.11-6.56c11.02-4.91,22.03-9.82,33.06-14.72c3.08-1.37,4.7-0.47,4.94,2.9
		C97.92,134.34,98.41,142.63,98.87,149.79z M91.97,129.74c-0.38,0.03-0.61,0-0.79,0.08c-9.74,4.32-19.49,8.63-29.2,13.04
		c-0.56,0.25-1.06,1.33-1.05,2.02c0.07,3.11,0.26,6.22,0.54,9.32c0.7,7.86,7.22,14.04,15.21,14.5c7.73,0.45,15.09-5.1,16.32-12.83
		c0.55-3.45,0.16-7.07,0-10.61C92.76,140.1,92.33,134.95,91.97,129.74z"/>
	<path class="st0" d="M56.77,120.32c-1.83-6.57-3.63-12.96-5.38-19.37c-2.88-10.57-6.23-21.03-7.55-31.98
		c-1.62-13.5-2.18-26.93,2.05-40.1c2.63-8.2,7.04-15.19,14.62-19.76c8.94-5.38,19.15-4.69,27.08,2.09
		c10.67,9.11,15.11,21.08,13.98,34.73c-0.74,8.88-2.99,17.65-4.76,26.42c-2.04,10.09-4.32,20.14-6.4,30.22
		c-0.35,1.68-1.06,2.66-2.65,3.39c-9.63,4.42-19.21,8.95-28.81,13.43C58.3,119.69,57.63,119.95,56.77,120.32z"/>
	<path class="st1" d="M135.77,183.21c0.97,0.39,1.64,0.64,2.3,0.93c9.05,4.05,18.09,8.14,27.17,12.11c1.39,0.61,1.9,1.29,1.73,2.8
		c-0.36,3.24-0.42,6.51-0.84,9.74c-1.07,8.11-8.39,14.05-16.57,13.59c-8.31-0.46-15.15-6.99-15.09-15.15
		C134.53,199.32,135.3,191.43,135.77,183.21z"/>
	<path class="st1" d="M170.95,174.13c-10.77-5.07-21.31-10.01-31.8-15.01c-0.62-0.29-1.25-1.1-1.4-1.76
		c-3.73-17.46-7.79-34.86-10.93-52.43c-2.33-13.1,0.47-25.36,9.32-35.83c13.3-15.73,30.45-10.47,39.34,0.82
		c5.94,7.55,8.38,16.44,9.3,25.79c1.5,15.24-0.34,30.19-4.38,44.9c-2.92,10.64-5.93,21.26-8.9,31.89
		C171.36,172.98,171.18,173.45,170.95,174.13z"/>
	<path class="st0" d="M91.97,129.74c0.35,5.21,0.78,10.36,1.03,15.51c0.17,3.54,0.55,7.16,0,10.61
		c-1.23,7.73-8.59,13.28-16.32,12.83c-7.99-0.46-14.51-6.64-15.21-14.5c-0.28-3.1-0.47-6.21-0.54-9.32
		c-0.02-0.68,0.49-1.76,1.05-2.02c9.7-4.41,19.45-8.72,29.2-13.04C91.36,129.73,91.59,129.77,91.97,129.74z"/>
</g>
</svg>
