<?xml version="1.0" encoding="utf-8"?>
<!-- Generator: Adobe Illustrator 25.2.1, SVG Export Plug-In . SVG Version: 6.00 Build 0)  -->
<svg version="1.1" id="Capa_1" xmlns="http://www.w3.org/2000/svg" xmlns:xlink="http://www.w3.org/1999/xlink" x="0px" y="0px"
	 viewBox="0 0 228 228" style="enable-background:new 0 0 228 228;" xml:space="preserve">
<g>
	<path d="M0,121.56c0-3.41,0-6.83,0-10.24c1.02-2.38,2.91-3.12,5.37-3.06c3.41,0.09,6.83,0.02,10.24,0.02c2.95,0,5.9,0,8.94,0
		c1.93-22.78,10.73-42.18,26.94-58c16.25-15.87,35.94-24.16,58.81-25.52c0-0.93,0-1.72,0-2.52c0-5.57-0.01-11.13,0-16.7
		c0.01-3.97,1.23-5.2,5.18-5.15c20.16,0.26,39.04,5.33,56.26,15.79c29.77,18.08,48.07,44.28,54.51,78.6
		c0.78,4.14,1.17,8.35,1.75,12.52c0,4.75,0,9.5,0,14.25c-0.13,0.57-0.29,1.13-0.38,1.71c-0.77,5.2-1.07,10.51-2.36,15.57
		c-11.55,45.44-40.03,74.32-85.32,86.48c-4.69,1.26-9.57,1.81-14.36,2.68c-7.72,0-15.44,0-23.16,0c-0.42-0.13-0.83-0.33-1.26-0.38
		c-20.12-2.28-38.4-9.36-54.6-21.47C22.28,188,7.25,163.97,1.76,134.08C1,129.94,0.58,125.73,0,121.56z M55.46,57.23
		c0.87,0.57,1.64,0.93,2.22,1.48c3.13,2.96,6.23,5.94,9.29,8.97c1.89,1.88,2,4.06,0.45,5.74c-1.61,1.73-3.87,1.67-5.91-0.19
		c-0.71-0.65-1.39-1.34-2.08-2.01c-2.91-2.82-5.82-5.63-8.81-8.52c-10.74,13.45-16.7,28.46-18.12,45.58c1.03,0,1.83,0,2.63,0
		c4.16,0,8.31-0.06,12.47,0.04c2.55,0.06,4.16,1.8,4.07,4.07c-0.08,2.16-1.7,3.7-4.16,3.75c-2.97,0.07-5.94,0.02-8.91,0.02
		c-2.05,0-4.1,0-6.33,0c0.76,21.19,8.28,39.17,22.07,54.03c3.1-2.86,5.89-5.64,8.94-8.11c0.99-0.8,2.81-1.29,3.98-0.97
		c1.07,0.29,2.36,1.82,2.49,2.93c0.15,1.23-0.62,2.86-1.49,3.88c-2.43,2.83-5.13,5.44-7.79,8.21
		c14.51,12.24,30.91,18.83,49.83,19.86c0-1.05,0-1.78,0-2.51c0-3.49-0.03-6.98,0.02-10.46c0.04-2.72,1.65-4.46,3.95-4.4
		c2.21,0.06,3.72,1.78,3.78,4.35c0.02,0.89,0.01,1.78,0.01,2.67c0,3.39,0,6.78,0,10.35c18.9-1.17,35.24-7.76,49.7-20.08
		c-0.82-0.72-1.5-1.28-2.13-1.89c-2.78-2.68-5.59-5.32-8.3-8.07c-1.69-1.71-1.65-4.02-0.1-5.57c1.46-1.47,3.69-1.51,5.43-0.06
		c0.63,0.52,1.19,1.12,1.77,1.69c2.92,2.82,5.85,5.65,8.89,8.59c14.17-15.47,21.7-33.38,22.38-54.33c-0.98-0.04-1.7-0.1-2.43-0.11
		c-4.01-0.01-8.02,0.02-12.02-0.01c-2.81-0.02-4.48-1.46-4.53-3.81c-0.06-2.46,1.61-4,4.54-4.05c2.82-0.05,5.64-0.01,8.46-0.01
		c1.9,0,3.8,0,5.81,0c-1.69-19.08-8.82-35.38-21.08-48.87c-3.12,2.85-6.19,5.53-9.11,8.37c-2.88,2.79-4.91,3.31-6.84,1.49
		c-2.01-1.9-1.62-4.03,1.3-7.03c2.83-2.91,5.65-5.83,8.6-8.86c-14.58-12.62-31.11-19.53-50.33-20.59c0,1.12,0,1.85,0,2.58
		c0,3.41,0.03,6.83-0.02,10.24c-0.04,2.41-1.61,4.09-3.75,4.16c-2.21,0.07-3.88-1.64-3.96-4.17c-0.06-1.93-0.02-3.86-0.02-5.79
		c0-2.27,0-4.55,0-7.08C88.94,33.99,71.02,42,55.46,57.23z M118.17,24.77c24.7,1.62,45.58,11.2,62.15,29.47
		c16.64,18.35,24.36,40.14,23.14,64.87c-2.24,45.15-38.28,81.61-83.11,84.63c-20.53,1.38-39.53-3.49-56.45-15.2
		c-25.16-17.41-38.01-41.81-39.62-72.22c-5.5,0-10.88,0-16.25,0C8,169.23,51.94,219.87,112.8,220.47
		c62.29,0.61,111.45-51.43,107.05-113.61c-4.3-60.71-56.11-98.18-101.68-98.3C118.17,13.87,118.17,19.19,118.17,24.77z"/>
	<path d="M126.01,104.44c0,3.46,0,6.55,0,9.96c1.97,0,3.87-0.01,5.77,0c8.28,0.06,13.59,5.38,13.64,13.66
		c0.05,8.47-3.55,13.52-10.77,15.1c-7.73,1.7-15.37-3.41-16.49-11.03c-0.41-2.79,0.87-4.9,3.18-5.25c2.44-0.36,4.11,1.08,4.6,3.96
		c0.53,3.09,3,5.01,6.16,4.8c3.4-0.23,5.45-2.37,5.5-5.74c0.01-0.59,0-1.19,0-1.78c-0.01-3.94-1.8-5.84-5.8-5.96
		c-2.89-0.09-5.78,0-8.68-0.03c-3.78-0.03-5.06-1.32-5.07-5.1c-0.01-5.19-0.02-10.38,0-15.57c0.01-3.48,1.4-4.85,4.87-4.86
		c5.86-0.01,11.72-0.01,17.57,0c3.11,0.01,4.87,1.44,4.86,3.92c-0.01,2.44-1.78,3.87-4.92,3.89
		C135.7,104.46,130.97,104.44,126.01,104.44z"/>
	<path d="M89.32,116.04c3.21,0,6.05,0,9.21,0c0-1.24-0.06-2.4,0.01-3.56c0.15-2.53,1.82-4.22,4.03-4.15
		c2.15,0.07,3.69,1.72,3.81,4.14c0.06,1.11,0.01,2.22,0.01,3.47c2.28,0.59,3.98,1.8,3.82,4.38c-0.14,2.14-1.55,3.26-3.81,3.71
		c0,4.27,0,8.56,0,12.85c0,0.82,0.03,1.63-0.01,2.45c-0.13,2.45-1.63,4.04-3.81,4.1c-2.28,0.06-3.94-1.54-4.02-4.1
		c-0.09-2.89-0.03-5.79-0.03-8.68c0-2.14,0-4.29,0-6.73c-3.72,0-7.26,0-10.8,0c-1.48,0-2.97,0.04-4.45-0.01
		c-3.41-0.12-5.09-2.73-3.67-5.82c1.4-3.03,2.96-5.97,4.45-8.96c3.54-7.09,7.03-14.21,10.69-21.25c0.59-1.13,1.81-2.46,2.92-2.66
		c1.2-0.22,3.15,0.4,3.81,1.33c0.72,1.03,0.87,3.07,0.35,4.26c-2.02,4.61-4.41,9.06-6.66,13.57
		C93.25,108.17,91.34,111.99,89.32,116.04z"/>
	<path d="M118.04,69.44c0,2.45,0.04,4.89-0.01,7.34c-0.05,2.52-1.69,4.24-3.91,4.21c-2.16-0.03-3.76-1.65-3.79-4.09
		c-0.06-5.12-0.07-10.23,0.01-15.35c0.03-2.39,1.75-4.03,3.89-3.99c2.14,0.04,3.75,1.71,3.8,4.1
		C118.09,64.25,118.04,66.85,118.04,69.44z"/>
	<path d="M67.22,116.13c-1.33,0-2.67,0.09-4-0.02c-2.15-0.18-3.59-1.74-3.65-3.76c-0.05-2.06,1.25-3.8,3.41-3.95
		c2.87-0.19,5.78-0.19,8.65,0c2.13,0.14,3.55,1.97,3.49,3.93c-0.06,1.98-1.56,3.6-3.68,3.78C70.05,116.23,68.63,116.13,67.22,116.13
		z"/>
</g>
</svg>
