<?xml version="1.0" encoding="utf-8"?>
<!-- Generator: Adobe Illustrator 16.0.3, SVG Export Plug-In . SVG Version: 6.00 Build 0)  -->
<!DOCTYPE svg PUBLIC "-//W3C//DTD SVG 1.1//EN" "http://www.w3.org/Graphics/SVG/1.1/DTD/svg11.dtd">
<svg version="1.1" id="Capa_1" xmlns="http://www.w3.org/2000/svg" xmlns:xlink="http://www.w3.org/1999/xlink" x="0px" y="0px"
	 width="228px" height="228px" viewBox="0 0 228 228" enable-background="new 0 0 228 228" xml:space="preserve">
<g>
	<path fill-rule="evenodd" clip-rule="evenodd" fill="#12214F" stroke="#DAA527" stroke-width="3" stroke-miterlimit="10" d="
		M120.297,225.441c-4.345,0-8.689,0-13.034,0c-0.558-0.119-1.113-0.32-1.676-0.357c-15.595-1.053-30.362-5.169-44.016-12.713
		c-31.32-17.308-50.502-43.586-57.257-78.788c-0.814-4.239-1.182-8.562-1.755-12.844c0-4.345,0-8.689,0-13.034
		c0.127-0.627,0.327-1.249,0.37-1.88c1.084-15.514,5.188-30.212,12.696-43.802C32.927,30.7,59.204,11.518,94.405,4.756
		c4.242-0.814,8.57-1.182,12.857-1.756c4.345,0,8.689,0,13.034,0c0.558,0.123,1.11,0.32,1.674,0.357
		c15.595,1.056,30.363,5.17,44.019,12.717c31.317,17.305,50.502,43.583,57.257,78.786c0.814,4.239,1.182,8.562,1.754,12.846
		c0,4.345,0,8.689,0,13.034c-0.127,0.624-0.326,1.245-0.37,1.879c-1.085,15.514-5.188,30.21-12.696,43.803
		c-17.304,31.319-43.58,50.502-78.782,57.267C128.91,224.502,124.583,224.869,120.297,225.441z M179.635,97.663
		c-16.545,0-32.87,0-49.397,0c0-16.522,0-32.848,0-49.249c-11.073,0-21.945,0-33.017,0c0,16.498,0,32.825,0,49.349
		c-16.523,0-32.849,0-49.249,0c0,11.074,0,21.948,0,33.02c16.497,0,32.823,0,49.348,0c0,16.52,0,32.847,0,49.247
		c11.076,0,21.947,0,33.02,0c0-16.495,0-32.823,0-49.35c16.521,0,32.846,0,49.295,0C179.635,119.662,179.635,108.841,179.635,97.663
		z"/>
	<path fill-rule="evenodd" clip-rule="evenodd" fill="#FFFFFF" d="M179.635,97.663c0,11.178,0,22,0,33.017
		c-16.449,0-32.774,0-49.295,0c0,16.526,0,32.854,0,49.35c-11.072,0-21.944,0-33.02,0c0-16.4,0-32.728,0-49.247
		c-16.525,0-32.852,0-49.348,0c0-11.072,0-21.946,0-33.02c16.4,0,32.726,0,49.249,0c0-16.523,0-32.851,0-49.349
		c11.072,0,21.943,0,33.017,0c0,16.401,0,32.727,0,49.249C146.765,97.663,163.09,97.663,179.635,97.663z"/>
</g>
</svg>
