<?xml version="1.0" encoding="utf-8"?>
<!-- Generator: Adobe Illustrator 25.2.1, SVG Export Plug-In . SVG Version: 6.00 Build 0)  -->
<svg version="1.1" id="Capa_1" xmlns="http://www.w3.org/2000/svg" xmlns:xlink="http://www.w3.org/1999/xlink" x="0px" y="0px"
	 viewBox="0 0 228 228" style="enable-background:new 0 0 228 228;" xml:space="preserve">
<style type="text/css">
	.st0{fill:#595959;}
</style>
<g>
	<path class="st0" d="M0.04,93.53c0-1.78,0-3.56,0-5.34c0.45-0.09,0.5-0.49,0.63-0.82c1.92-4.97,5.53-7.74,10.84-8.23
		c10.85-1,21.7-1.99,32.54-2.97c10.33-0.94,20.67-1.88,31-2.78c1.36-0.12,2.03-0.69,2.56-1.96c2.43-5.88,4.97-11.72,7.48-17.57
		c5.88-13.75,11.74-27.51,17.66-41.23c2.62-6.06,8.7-8.99,14.73-7.15c4.05,1.23,6.51,4.09,8.14,7.92
		c8.22,19.35,16.53,38.66,24.74,58.01c0.54,1.27,1.2,1.86,2.54,1.97c8.86,0.76,17.72,1.54,26.57,2.35
		c12.62,1.15,25.24,2.29,37.85,3.54c4.39,0.43,7.5,2.9,9.47,6.84c0.42,0.83,0.43,1.85,1.16,2.53c0,1.63,0,3.26,0,4.9
		c-1.2,3.99-3.97,6.75-7.03,9.41c-14.89,12.94-29.66,26.02-44.56,38.94c-1.74,1.51-2.19,2.79-1.67,5.04
		c4.72,20.34,9.32,40.71,13.94,61.08c0.5,2.2,0.54,4.4-0.11,6.6c-2.31,7.85-10.97,11.08-18.29,6.72
		c-18.08-10.77-36.14-21.57-54.16-32.43c-1.56-0.94-2.65-0.88-4.16,0.03c-17.97,10.81-35.98,21.55-53.98,32.31
		c-4.71,2.81-9.46,3.06-13.96-0.23c-4.56-3.34-5.77-7.98-4.52-13.42c4.68-20.43,9.28-40.88,13.99-61.3
		c0.41-1.76,0.02-2.78-1.32-3.94c-15.1-13.15-30.11-26.4-45.22-39.54C3.9,100.17,1.21,97.45,0.04,93.53z"/>
</g>
</svg>
