<?xml version="1.0" encoding="utf-8"?>
<!-- Generator: Adobe Illustrator 25.2.1, SVG Export Plug-In . SVG Version: 6.00 Build 0)  -->
<svg version="1.1" id="Capa_1" xmlns="http://www.w3.org/2000/svg" xmlns:xlink="http://www.w3.org/1999/xlink" x="0px" y="0px"
	 viewBox="0 0 228 228" style="enable-background:new 0 0 228 228;" xml:space="preserve">
<style type="text/css">
	.st0{fill:#010101;}
	.st1{fill:#030202;}
	.st2{fill:#040404;}
	.st3{fill:#FEFCFA;}
	.st4{fill:#EB3B3B;}
	.st5{fill:#FDDBAF;}
	.st6{fill:#DFBC90;}
	.st7{fill:#D02626;}
	.st8{fill:#DFBC8F;}
</style>
<g>
	<path class="st0" d="M84.47,148.73c-0.44,2.07-1.61,3.26-3.83,3.26c-8.23-0.03-16.48,0.21-24.7-0.14
		c-10.02-0.43-16.94-7.91-17.17-17.95c-0.04-1.93-0.01-3.86-0.01-5.79c0-36.05,0.1-72.1-0.07-108.15
		c-0.04-9.13,4.74-16.95,13.49-19.31c0.33-0.09,0.75-0.13,0.82-0.6c27.6,0,55.2,0,82.8,0c2.59,1.09,5.37,1.71,7.67,3.48
		c4.99,3.84,7.31,8.95,7.37,15.14c0.07,6.65,0.03,13.31,0.01,19.97c-0.01,2.87-0.65,3.68-3.45,4.61c-2.89-1.01-3.3-1.56-3.31-4.71
		c-0.02-6.45,0.05-12.91-0.02-19.36c-0.08-7.92-4.62-12.39-12.5-12.39c-24.55-0.01-49.1-0.01-73.65,0
		c-7.86,0-12.42,4.58-12.42,12.47c-0.01,37.83-0.01,75.65,0,113.48c0,7.97,4.46,12.45,12.36,12.47c7.27,0.01,14.54,0.02,21.81-0.01
		c1.3-0.01,2.5,0.19,3.61,0.86C83.96,146.82,84.23,147.77,84.47,148.73z"/>
	<path class="st1" d="M114.44,227.96c-1.38-1.35-1.85-3.01-2.06-4.92c-0.83-7.58-4.52-14.01-8.5-20.27
		c-2.5-3.94-5.38-7.63-7.83-11.59c-4.88-7.86-7.15-16.5-7.1-25.76c0.03-5.56-0.05-11.12-0.08-16.68c0.04-9.33,0.07-18.66,0.12-27.98
		c0.01-2.3,0.12-4.56,0.72-6.82c1.16-4.31,3.77-7.63,6.96-10.58l-0.02,0.01c0.19-0.14,0.37-0.28,0.56-0.43
		c1.04-0.57,2.05-1.19,3.12-1.69c5.87-2.69,11.77-2.79,17.56,0.18c7.62,3.91,11.06,10.42,11.15,18.8
		c0.11,9.49,0.08,18.98,0.11,28.46c-0.03,3.48-0.05,6.95-0.1,10.43c-0.04,2.81-1.21,4.3-3.37,4.34c-2.18,0.03-3.36-1.42-3.44-4.23
		c-0.02-0.59,0-1.18,0-1.78c0-11.99,0.01-23.99-0.01-35.98c0-1.4-0.07-2.81-0.22-4.21c-0.86-7.87-9.65-13.27-16.95-10.44
		c-5.3,1.1-9.3,6.48-9.32,12.77c-0.04,15.79-0.05,31.59,0.02,47.38c0.03,7.58,2.08,14.71,6.28,20.99
		c4.77,7.13,9.78,14.09,13.65,21.78c1.75,4.77,3.49,9.54,3.71,14.7c-0.14,1.58-1.11,2.62-2.29,3.53
		C116.22,227.96,115.33,227.96,114.44,227.96z"/>
	<path class="st2" d="M180.28,184.69c2.2,0.84,2.68,2.51,2.33,4.66c-1.74,10.72-3.46,21.44-5.19,32.16
		c-0.12,0.73-0.25,1.46-0.31,2.19c-0.15,1.85-0.94,3.31-2.57,4.26c-0.74,0-1.48,0-2.23,0c-1.15-0.92-2.15-1.95-2.27-3.53
		c1.95-11.98,3.9-23.95,5.84-35.93C176.35,185.56,177.27,184.75,180.28,184.69z"/>
	<path class="st3" d="M170.03,224.43c0.13,1.58,1.13,2.6,2.27,3.53c-18.4,0-36.8,0-55.2,0c1.18-0.9,2.15-1.95,2.29-3.53
		C136.28,224.43,153.16,224.43,170.03,224.43z"/>
	<path class="st4" d="M129.15,148.69c-0.03-9.49,0-18.98-0.11-28.46c-0.09-8.37-3.53-14.89-11.15-18.8
		c-5.78-2.96-11.68-2.86-17.56-0.18c-1.07,0.49-2.08,1.12-3.12,1.69c-0.19,0.14-0.37,0.28-0.56,0.43c0,0,0.02-0.01,0.02-0.01
		c-1.31-0.16-2.52,0.28-3.6,0.89c-5.7,3.22-9.33,7.81-9.35,14.66c-0.02,8.28,0,16.57-0.02,24.85c0,0.78,0.29,1.65-0.42,2.31
		c-1.11-0.67-2.32-0.86-3.61-0.86c-7.27,0.03-14.54,0.02-21.81,0.01c-7.9-0.02-12.36-4.5-12.36-12.47
		c-0.01-37.83-0.01-75.65,0-113.48c0-7.89,4.56-12.47,12.42-12.47c24.55-0.01,49.1-0.01,73.65,0c7.88,0,12.42,4.47,12.5,12.39
		c0.07,6.45,0,12.91,0.02,19.36c0.01,3.15,0.42,3.69,3.31,4.71c0,1.46,0,2.91,0,4.37c-2.86,0.82-3.41,1.65-3.41,5.31
		c0,26.62,0,53.25-0.01,79.87c0,6.74-2.7,10.45-9.01,12.24c-1.95,0.56-3.12,1.58-3.26,3.65
		C130.87,148.68,130.01,148.68,129.15,148.69z"/>
	<path class="st5" d="M129.15,148.69c0.86,0,1.72-0.01,2.57-0.01c0.94,2.85,2.13,3.46,4.93,2.9c4.16-0.83,7.36-3.19,10.23-6.12
		c0.09,0.85-0.09,1.78,0.7,2.44c5.3-13.35,9.33-17.98,16.28-21.49c3.55,1.49,7.03,3.14,10.25,5.23c6.05,3.92,9.03,9.62,8.1,16.81
		c-1.2,9.24-2.83,18.43-4.29,27.64c-0.44,2.78-0.04,3.64,2.47,4.97c-0.04,1.21-0.08,2.43-0.12,3.64c-3.01,0.07-3.92,0.88-4.4,3.82
		c-1.94,11.98-3.89,23.95-5.84,35.93c-16.88,0-33.75,0-50.63,0c-0.22-5.16-1.96-9.93-3.71-14.7c0.6-0.33,0.43-0.8,0.33-1.34
		c-1.19-6.48-4.31-12.05-8.06-17.32c-5.04-7.07-7.58-15.04-7.7-23.6c-0.23-16.14-0.07-32.28-0.06-48.43c0-4,1.42-7.49,3.95-10.55
		c0.42-0.51,1.01-0.9,0.91-1.69c7.3-2.83,16.09,2.58,16.95,10.44c0.15,1.39,0.22,2.8,0.22,4.21c0.02,11.99,0.01,23.99,0.01,35.98
		c0,0.59-0.01,1.18,0,1.78c0.08,2.81,1.26,4.26,3.44,4.23c2.16-0.03,3.33-1.52,3.37-4.34C129.1,155.64,129.12,152.16,129.15,148.69z
		"/>
	<path class="st2" d="M146.89,145.45c-2.87,2.94-6.07,5.29-10.23,6.12c-2.8,0.56-3.99-0.05-4.93-2.9c0.14-2.07,1.31-3.09,3.26-3.65
		c6.31-1.79,9.01-5.5,9.01-12.24c0.01-26.62,0-53.25,0.01-79.87c0-3.65,0.55-4.49,3.41-5.31c2.79,0.77,3.45,1.66,3.45,4.81
		c0.01,20.31,0,40.63,0.01,60.94c0,0.81,0.05,1.63,0.08,2.44c-0.03,4.8-0.18,9.6-0.05,14.39
		C151.06,135.7,150.26,140.89,146.89,145.45z"/>
	<path class="st2" d="M180.39,181.05c-2.51-1.34-2.91-2.2-2.47-4.97c1.46-9.21,3.09-18.4,4.29-27.64c0.93-7.19-2.05-12.88-8.1-16.81
		c-3.22-2.09-6.7-3.74-10.25-5.23c-2.31-1.23-4.58-2.54-6.94-3.66c-2.21-1.05-3.3-2.57-2.78-5.05c2.15-2.26,3.03-2.44,5.81-1.04
		c5.02,2.52,10.04,5.05,15.03,7.62c10.89,5.62,15.76,15.65,13.69,27.92c-1.37,8.1-2.65,16.22-3.94,24.33
		C184.18,179.97,183.51,180.7,180.39,181.05z"/>
	<path class="st6" d="M154.15,117.7c-0.52,2.48,0.57,4,2.78,5.05c2.36,1.12,4.63,2.43,6.94,3.66c-6.95,3.51-10.98,8.14-16.28,21.49
		c-0.79-0.66-0.61-1.59-0.7-2.44c3.37-4.56,4.17-9.75,4.02-15.27c-0.13-4.79,0.02-9.59,0.05-14.39
		C151.99,116.48,153.31,116.69,154.15,117.7z"/>
	<path class="st7" d="M83.29,146.05c0.72-0.66,0.42-1.53,0.42-2.31c0.02-8.28,0-16.57,0.02-24.85c0.01-6.85,3.64-11.44,9.35-14.66
		c1.08-0.61,2.29-1.05,3.6-0.89c-3.19,2.96-5.8,6.27-6.96,10.58c-0.61,2.25-0.71,4.52-0.72,6.82c-0.04,9.33-0.08,18.66-0.12,27.98
		c-1.47,0-2.94,0-4.4,0C84.23,147.77,83.96,146.82,83.29,146.05z"/>
	<path class="st8" d="M105.06,106.81c0.1,0.78-0.49,1.18-0.91,1.69c-2.53,3.06-3.95,6.55-3.95,10.55
		c-0.01,16.14-0.17,32.29,0.06,48.43c0.12,8.56,2.66,16.53,7.7,23.6c3.75,5.27,6.88,10.84,8.06,17.32c0.1,0.54,0.27,1.01-0.33,1.34
		c-3.87-7.69-8.88-14.65-13.65-21.78c-4.2-6.28-6.25-13.41-6.28-20.99c-0.07-15.79-0.06-31.59-0.02-47.38
		C95.76,113.29,99.77,107.91,105.06,106.81z"/>
	<path class="st7" d="M96.66,103.36c0.19-0.14,0.37-0.28,0.56-0.43C97.03,103.08,96.84,103.22,96.66,103.36z"/>
</g>
</svg>
